<svg id="Layer_1" data-name="Layer 1" xmlns="http://www.w3.org/2000/svg" viewBox="0 0 451.56 191.11"><defs><style>.cls-1,.cls-5{fill:#1a2c5f;}.cls-2{font-size:36px;letter-spacing:0.1em;}.cls-2,.cls-8{fill:#f15a29;}.cls-2,.cls-5{font-family:ForteMT, Forte;}.cls-3{letter-spacing:0.08em;}.cls-4{letter-spacing:0.1em;}.cls-5{font-size:18px;}.cls-6{letter-spacing:-0.09em;}.cls-7{letter-spacing:-0.06em;}</style></defs><polygon class="cls-1" points="7.4 187.24 7.59 187.32 7.13 186.66 7.4 187.24"/><path class="cls-1" d="M7.41,183c-.78.4.13,1.54-.15,2.29l-.18.13.63.34C7.61,184.84,7.19,183.65,7.41,183Z"/><path class="cls-1" d="M9.1,180.74c-.3.14-.26-.49-.09.52a1,1,0,0,1,.07-.09A4.1,4.1,0,0,1,9.1,180.74Z"/><path class="cls-1" d="M9.08,181.17c0,.45.26-.29,0,0Z"/><path class="cls-1" d="M8.91,179.1l.27.59c.18-.12.22-.64.35-.45C9.38,178.64,9.2,178.76,8.91,179.1Z"/><path class="cls-1" d="M8.34,178.55l.11.3C8.53,178.8,8.55,178.72,8.34,178.55Z"/><path class="cls-1" d="M8.7,179.5l-.25-.65c-.12.09-.38.1.09.3C8.31,179.1,8.53,179.22,8.7,179.5Z"/><path class="cls-1" d="M8.58,179.87c-.17.33-.28.75-.55.16C8.14,181.16,8.69,181,8.58,179.87Z"/><path class="cls-1" d="M6.6,182.78l-.23.44.27.39C6.51,183.42,6.85,182.76,6.6,182.78Z"/><path class="cls-1" d="M9.31,175.44c-.16,0-.44.2-.65.24l.19.43C9,175.89,9.07,175.47,9.31,175.44Z"/><path class="cls-1" d="M8.66,175.68,8.37,175C8.34,175.61,8.47,175.72,8.66,175.68Z"/><polygon class="cls-1" points="7.47 178.44 8.07 179.51 7.46 178.24 7.47 178.44"/><polygon class="cls-1" points="9.33 172.95 9.72 173.32 9.14 172.66 9.33 172.95"/><path class="cls-1" d="M9.27,171.3c.31.28.54-.37.73-.08A2.73,2.73,0,0,0,9.42,170,1.46,1.46,0,0,1,9.27,171.3Z"/><path class="cls-1" d="M9.07,169.47a3,3,0,0,0,.35.57A1.6,1.6,0,0,0,9.07,169.47Z"/><path class="cls-1" d="M8.45,173.92a.79.79,0,0,0,.48-.51l-.47.25A2.35,2.35,0,0,1,8.45,173.92Z"/><path class="cls-1" d="M8.45,173.67h0c0-.27,0-.47,0-.55S8.47,173.35,8.45,173.67Z"/><path class="cls-1" d="M8.45,174v-.06S8.39,174,8.45,174Z"/><path class="cls-1" d="M7.89,176.74c-.26-.39-.54-1.18-.94-.41C7.27,176.6,7.5,176.16,7.89,176.74Z"/><path class="cls-1" d="M7.87,174.3l-.11.69c.12,0,.3-.13.43,0Z"/><polygon class="cls-1" points="7.72 173.96 7.87 174.3 7.91 174.05 7.72 173.96"/><path class="cls-1" d="M8.63,170.65a1.87,1.87,0,0,1-.25-1,4.85,4.85,0,0,0-.15,1.19C8.38,170.9,8.64,171.07,8.63,170.65Z"/><path class="cls-1" d="M8.5,172.12l0-.07S8.42,172.13,8.5,172.12Z"/><path class="cls-1" d="M8.38,166l-.09.06.08,0Z"/><path class="cls-1" d="M8.15,170.91a.61.61,0,0,0,.17.65,3.93,3.93,0,0,1-.09-.71C8.17,170.82,8.12,170.82,8.15,170.91Z"/><path class="cls-1" d="M8.85,168.45a3.6,3.6,0,0,0-.26.52C8.74,168.82,9,168.51,8.85,168.45Z"/><path class="cls-1" d="M8.6,172s0,0,0,.05S8.67,171.91,8.6,172Z"/><path class="cls-1" d="M8.6,172a1.84,1.84,0,0,0-.28-.39,1.76,1.76,0,0,0,.15.49Z"/><path class="cls-1" d="M5.38,164.92a1,1,0,0,1,.36,1.51c.33.67,1.76.23,2.55-.35-.19,0-.36,0-.62-.7-.23.24-.55,1.51-.94.94-.23-.91.15-.74.38-1.18-.54.37-.79-1.15-1.58-1l.28.8C5.69,165,5.49,164.7,5.38,164.92Z"/><path class="cls-1" d="M8.25,167.38l.05.29a2.53,2.53,0,0,1,.59-1c-.21-.46-.37-.56-.52-.59l-.06,1.38Z"/><path class="cls-1" d="M8.3,168.93c-.47-.22-.67-.9-1.18-.48,0,.82.4.57.6,1.07-.12-1.33.26.38.53-.58a3.33,3.33,0,0,1,.13.72,3.94,3.94,0,0,1,.21-.69l0,0h0c-.06.06-.1.08-.07,0v0a.76.76,0,0,1-.18-.06c.09-.39.12-.06.18.06h.07l-.26-1.33A4.62,4.62,0,0,0,8.3,168.93Z"/><path class="cls-1" d="M5.94,175.62a.18.18,0,0,1,.11-.05C6,175.49,6,175.46,5.94,175.62Z"/><path class="cls-1" d="M6.22,175.07c.07.1.26.18.21.49s-.23,0-.38,0c.12.19.34.67.57.07l-.07-.09c.16-.54.75-1.23.82-1.13A3.12,3.12,0,0,0,6.22,175.07Z"/><path class="cls-1" d="M7.14,172l-.23-1.11-.41.56.25,0C6.65,172,7,171.88,7.14,172Z"/><polygon class="cls-1" points="8.61 165.9 9.11 166.04 8.41 165.4 8.61 165.9"/><polygon class="cls-1" points="8.55 164.46 8.99 164.51 8.72 164.13 8.55 164.46"/><path class="cls-1" d="M3.18,83l-.12-.32A.82.82,0,0,0,3.18,83Z"/><path class="cls-1" d="M3.15,85.41l.21,0C3.24,85.35,3.16,85.31,3.15,85.41Z"/><path class="cls-1" d="M8.5,129c.41-.47,1-1,.55-1l-.48.15A1.06,1.06,0,0,1,8.5,129Z"/><path class="cls-1" d="M5.67,104.76l-.15.14.46.32Z"/><path class="cls-1" d="M3.7,104.42,4,103.8A2.21,2.21,0,0,0,3.7,104.42Z"/><path class="cls-1" d="M2.67,70.15l-.48-.38C2.19,70.36,2.44,70.1,2.67,70.15Z"/><path class="cls-1" d="M8.38,149.68a3.09,3.09,0,0,0,.28-1C8.39,149.15,8,149.55,8.38,149.68Z"/><path class="cls-1" d="M8.22,84c-.09-.2-.18-.28-.29-.28C8,83.9,8.1,84,8.22,84Z"/><path class="cls-1" d="M8.66,147.47c0,.07-.07.14-.11.22a2.52,2.52,0,0,1,.11,1A1,1,0,0,0,8.66,147.47Z"/><path class="cls-1" d="M3.07,23.37a1.17,1.17,0,0,1,.05-.11C3.06,23.25,3.06,23.3,3.07,23.37Z"/><path class="cls-1" d="M7.86,9.74a4.06,4.06,0,0,1,0,.56A1.15,1.15,0,0,0,7.86,9.74Z"/><path class="cls-1" d="M8.76,158.65c0,.31.05,0,0,0Z"/><path class="cls-1" d="M6.88,160.14a.27.27,0,0,0-.23-.12A.32.32,0,0,1,6.88,160.14Z"/><path class="cls-1" d="M5.71,144.42v0C5.62,144.49,5.63,144.47,5.71,144.42Z"/><path class="cls-1" d="M8.54,159.11a2,2,0,0,0,.15-.39A1.55,1.55,0,0,0,8.54,159.11Z"/><path class="cls-1" d="M8.77,159.05c0,.1,0,.19,0,.27S8.85,159.32,8.77,159.05Z"/><path class="cls-1" d="M8.73,158.22a2,2,0,0,1,0,.5c0-.06.05-.09.07-.07S8.74,158.43,8.73,158.22Z"/><path class="cls-1" d="M4.34,48.43l0-.06C4.19,48.06,4.22,48.19,4.34,48.43Z"/><path class="cls-1" d="M3.57,121.06l0,0s0,0,0,0Z"/><path class="cls-1" d="M3.22,120c.59.47.52.73.39,1.09L5,120.69Z"/><path class="cls-1" d="M3,77.39l-.43.77c-.7-.93-.46-1.6-1.06-.88,1.49.11.16,3,1.64,3.11l-.31.51c0-.15-.07-.17-.06-.32-.71,1,1.08.74.86,2-.11.45-.33.76-.5.45l.37,1c0,.29-.29.22-.26-.07l.12,1.51H3.36a5.89,5.89,0,0,1,.75,1c-.21.38-.16-.2-.34-.1l.36.84c-.39.34-.76-.36-.71-.93-1.48.78.38.69-.49,2.38l-.19-.79c-.84.51-.54,1.12-1.06,2C2,89.61,3,88,3.37,88.94A1.1,1.1,0,0,0,3.51,90c-.53,0-.4.48-.37,1.08l-.7,0c.2.64.56.59.87,1-.07.72-.61.87-1.07,1-.11,1.16.87-.79,1,.57a4.2,4.2,0,0,0,.44,2.78c-.24.68-.43-.11-.63.13l.56.59c0,.15-.18.1-.27.08.22.5.7,0,.89.83.77.21-1.13,1.62-.25,2.59-.2.24-.43-.11-.7,0a7.52,7.52,0,0,0,1.19,2.25L4,103.8c.53-.69,1.15.19,1.66,1,.25-.25.47-.46.58-.6l.38,1.23c-.12.15-.36,0-.65-.17a2.11,2.11,0,0,0,.17.22c-.26.44-.67.21-1.06-.1l.43-.44a2,2,0,0,0-1.3-.53.93.93,0,0,1,.19.4c-.12-.07-.22-.13-.29-.09s.08.17.26.37l-.78.28.31.07L3.42,107c.79,1.15,1.94,2.15,2.26,4-.57-.46-.93-.1-1.61-.12.72-.5-.3-1.42-.16-2.37-.07.5-.4.39-.51.26l.65,1.69c-.55,0-.41.36-.64.8,1.09-.33.73,1.26,1.06,2-.36,0-.74-.12-.65-1-.83.92,1.29,1.19.59,2.1,0-.2,0-.32-.14-.4.32.48.06,1.65-.26,1.38v-.21c-.13,1.36,0,4.14.92,4.34a8,8,0,0,1-1.31-.26l3.13,2.43c-.8-.22-2.7.6-3.15-.53a1.71,1.71,0,0,0,0,1.41c.11-.22,1.16-.55,1.23-.25-.89.83-.48.58-1.24,1.6.18-.33,1.43,0,1.39.56-.19-.08-1.24,0-1.37-.15l1.23,1.3c-.22-.32-1-.06-1.39.23.24-.13,0,1.13.1,1.48l.29-.56c-.19,1.47,1.73,1.46,1.66,2.91-.25-.17-1.56-.43-1.72.31.63.34,3,1.5,3.52,2.79L7,133l.41,1a23.4,23.4,0,0,1-3.72-3.29c-.29.55-.43.15-.39,1-.34.29-.52-.45-.54-.69l-.21,1.91c.73-.08.73,1.47,1.35,1.4l-.76-2.09c.73-.08,2.08,1.21,1.95,2.57-.29.34-1.31-.26-1.55-.23.25.17.48,1.28.3,1.41l-.39-.58c-.28.76,1,1.24.27,2.15,0,.31-.95.93-.51,1a6.64,6.64,0,0,1,4.07-.27,10.19,10.19,0,0,1-1.22,2c-.66.52-1.57-.77-2.13-.33.2,0,.45.3.52.42-.17.33-.62-.14-.53.58.75.12-.06,1.45.63.34.22.7-.15.74-.12,1.56.49-.26,1.64.74,1.86,1.44a.89.89,0,0,0-.55.19c-.07,1.44-.41,2.21-.42,3.55-.18.12-.39.77-.72.49a1.26,1.26,0,0,1,.41.78c-.65.8-.1-.92-.88-.31.44,0,.6,1.07.87,1.66.67-.18.13-1.36-.14-2,.92,0,1.89,1,2.32,2.42.23,1.11-.6.48-.47.68-.16,2.08,1.61,1.78,1,3.51-.59.69-1.17,0-1.6.18-.22-.9.38-1.39.35-2l-.28.75A1.46,1.46,0,0,1,5.93,153c-.53.58-.1,3.53-.59,5.14.2.29.4.78.64.55l-.08-.51c.47-.47.65,1,.87.31a3.24,3.24,0,0,1,.59,2.41l-.67.19c.2,0,.4-.63.2-.9.3.4-.91,1.47,0,1.91l.46-.67c.34.68,1,1.53.84,2.38.66-.38-.07-.19.7-.8-1,.53,0-2.18-1-1.34.9-.62.38-1.07,1.15-1.89-.22,0-.43.29-.32-.42a1.46,1.46,0,0,1-.19-.16s0,0,0,0l0,0s0,0,0,0a.83.83,0,0,1-.34.37c-.51-.36-.49-1.49-.75-1.88.1-.42.25.18.49-.05l-.4-.58c.5-.06.82-1.13,1.11-.13l0-.9a2.14,2.14,0,0,0,.18-1.71c.11-.42-.55-1.07-.16-.7l-.3-1.41.12,0c.06-1.39-.82-2.87.07-4.46A3.59,3.59,0,0,1,8.42,146l.42-.15c-.15-.61.43-1.81,0-2.07,1.15-.65.25-2.93.46-4l-.56,0a8.34,8.34,0,0,0-.35-2.33l-.49,0c-.4-.78.35-2,.3-3.24.19.09.14.4,0,.62,1.11-1.48-.8-3.11,0-4.45a.78.78,0,0,1,0-.81.11.11,0,0,0,0,.08v-.13A3.54,3.54,0,0,0,8.5,129a2.19,2.19,0,0,0-.26.39,4.38,4.38,0,0,0-.19-1l.52-.16a.28.28,0,0,0,0-.09c.19-.37-.25-.3-.65-.1a2,2,0,0,0-.31-.51c.85-.3-.29-1,.62-1.41-.45-.26-.34-1.93-1.27-2.13.12,0,.18-.13.19.08a1.46,1.46,0,0,0,0-1.23l.67-.18-.9-.93c.41-.57.64-.8,1.16-.24-.79-1.36-.3-1.1-1.09-2.26l.44.06c0-.41-.6-1.07-.24-1.32C8,117,7.24,113.4,8,111c-1.28.46.57-1.1-.42-1.19.3-.14.47-.47.74-.08-.3-1.21.47-1.82-.36-2.65.3-.14.44.26.62.13-.06-.09-.26-.38-.08-.51s.25.18.38.37c-.05-1.23-1-1.36-1.85-1.45.41-.62.36-.93-.22-1.38.29-.22.59-.58.69.18,0-.43.42-2.63-.28-2.68.18-.13,0-.6,0-.71a13.55,13.55,0,0,0,0-2l-.12.27c-.84-.38-.18-.79-.29-1.56l.09,0c.61-1.75-.29-.75.4-2.49l-.52.1c-1.13-.16.66-1.54.23-2.54l-.3.36c-.38-.55,1.54-1.53,1.68-2.09.1-.12.16.19.23.36.67-1.44-.69-.19-.85-1.26.37-.2,1,.25,1-.47.31-.36-1.2-2.1-.49-3.09-.28.22-.57.43-.78-.06-.11-.77,1.08-2.08.18-2.77a.31.31,0,0,1,.22-.14c-.23-.58-.39-1.9-.88-2.25,1.82-.54-.88-3.64.79-3.63L7.75,76l.18,0a2.05,2.05,0,0,0-.7-2c.12-.26.27-.07.36,0A3.25,3.25,0,0,0,7,70.78l.55-.14c-.32-.39.85-2.44.22-4.09a.42.42,0,0,1,.24.19c-.64-1.86,1.5-4.45-.47-5.13l-.49-1.22c-.15,1.58-.86-.24-1.18.41-.12-.62.59-1.61.69-.84l-.1.12c1,.28.37-2,1.07-1.93,0-3.12.52-6.16.56-9.08l-.8.34.05-1c.19-.27.63-.36.59.37.46-.39-.38-1.22-.55-1.24.32-1.43.93.55.95.12L8.29,47l-.09.14c-.33-.48-.68-.53-.64-1.4.16-.55.5-.28.53-.5.05,0,.08-.07,0-.34l.07-1.28-.63.51c-.31-.56,0-1.2-.69-.61,1.11-.87.4-4.79.74-5.32a4.24,4.24,0,0,1-.39-2.56c-.14.24-.85.39-.76-.45,1.47.3.64-1.54,1.69-2.22-.7.6-.17-2.39-1.16-1.44.11-.7.55,0,.89-.57-.57-1.67.37-3.68.18-5.75-.19,0-.49.32-.78-.13l1-1.09c-.1-.4-1.11-.37-.45-1.12-.16.11-.4.27-.46,0,.93-4-.77-8.26,1-12.36-.37.55-.41.18-.42-.24-.09.28-.48,0-.74,0l.72-1.72c-.72-.31,0-1.84-.74-2l.13.54c-.82-.72-1.82,1-2.87.91.93.81-1.37,2.14,0,3.46-.22.3-.34-.25-.58-.09.45.34.54.75.34,1.5L4,12.84c.11,2.12-.34,3-.63,5.41l.52-.17a1.69,1.69,0,0,1-.37.85c.79.59.05-1.43.92-.9-1.06.68,0,3.61-1.22,4.07,0,.79.6-.23.59.55l-.32.21.42.2a.9.9,0,0,1-.75.8c0-.13-.08-.36-.1-.49-.38.67.13,1.88,0,2.11l.2-.75c.31,2.15-.12,4.77.54,6.84l.25-.15c.45,1.58-.27,1.26-.06,3l-.06-.06a2.14,2.14,0,0,1,.34,1.29c-.29-.44-.56.83-.88.25.49,1.72.38.85,1.29,2l-.4.26A1.56,1.56,0,0,1,5,39.43c-.34-.71-.61.56-1.08-.24-.88,1.82.9,2.71-.4,3.54,1.13.84.63-1.57.87-1.1.36-.4.84.69.72,1.26s-1.43,1-1.41,2.45c0-.14-.08-.15-.08-.3-.28.55.39,1.08-.07,1.75.68.38,0,.87.82,1l-.2-1.34c.23.76,1.24,1.47.75,2.73a2.15,2.15,0,0,1-.53-.73c-.26.37.17.71-.09,1.09-.87-.11-.19-1.63-.85-2.45-.37.39.62,1.54-.32,1.13,1.2.59-.15,1.45.77,2.44l-.52-.07a1.81,1.81,0,0,1,.31.77L3,50.82c.57.8-.51,1.55-.19,2.32,0-1.61.62-.36,1-1,.7,2-1.36,1.14-1.11,3.37-.07-.3.31-1.13.56-.66a3,3,0,0,1-.58,1.24c.1,1.48.53-.22.85.4-.63.51.26.73.46,1.38H3.43c-.34,1.68,1.1.45.69,2l-.73-.64.19.79L3,59.78a2.24,2.24,0,0,1,.16,2c.37-.19,1,.11,1,.86-.32.51-.51-.29-.43.77-.33-.24-.75-.5-.26-1-.17,0-.33-.23-.5-.28-.36.54-.08,1.37-.08,1.75A.86.86,0,0,1,3,63.47L3.71,65c-.2.24-.36,0-.52-.14.06.31.3.53.35,1-.43-.11-.87-.09-1.08-.73l.48,1.46c-.19.09-.51.74-.67.56-.25.8.83,2,.5,3.05a.68.68,0,0,1,.22.4c-.09,1-.62,1.9,0,3.09l-.77.68c.17.93,1-.92,1.26.64.24,1.1-.66.41-.87.8.39.54,1.18,1.5.55,2.51C3,78,3.1,77.7,3,77.39Zm.34,11.53c-.11-.22-.45-.67-.14-.83C3.85,88.34,3.56,88.54,3.38,88.92Zm1.27,17.54c-.17-.17-.08-.43.12-.72A1.08,1.08,0,0,1,4.65,106.46ZM8.33,155.3s0,0,0,0C8.51,154.77,8.43,155,8.33,155.3Zm-.23,1c.08.11.15.1.22,0-.13-.07-.14-.3-.1-.57C8.08,155.89,8,156,8.1,156.33ZM7.89,45.16l-.14.2C7.6,44.91,7.74,45,7.89,45.16Z"/><path class="cls-1" d="M3.93,104.47a.63.63,0,0,1,.29-.1C4.13,104.28,4,104.28,3.93,104.47Z"/><path class="cls-1" d="M2.76,70.22a.08.08,0,0,0,0,0,.17.17,0,0,0-.1,0Z"/><path class="cls-1" d="M3.62,140.3a.81.81,0,0,1,.28-.41C3.77,139.87,3.66,140,3.62,140.3Z"/><path class="cls-1" d="M9,161.82l-.14-.67a.88.88,0,0,1-.17.6C8.81,161.74,9,161.61,9,161.82Z"/><path class="cls-1" d="M5.73,167.57c.07.1,0,.21.07.3l.25,0C6,167.43,5.83,167.15,5.73,167.57Z"/><path class="cls-1" d="M7.24,162.43c-.44,0-.29.47-.21.93v-.08C7.65,163.42,7.45,162.92,7.24,162.43Z"/><path class="cls-1" d="M7.05,163.47a1.55,1.55,0,0,1,0,.43C7.31,164,7.11,163.73,7.05,163.47Z"/><path class="cls-1" d="M8.4,157.64c-.12.22.56.14.38.27C9.35,158.15,8.1,156.44,8.4,157.64Z"/><polygon class="cls-1" points="5.78 162.81 6.33 162.64 5.89 162.38 5.78 162.81"/><path class="cls-1" d="M6.18,159.14l-.15.74c.09,0,.15.08.19.2C6.24,159.62,6.35,159.12,6.18,159.14Z"/><path class="cls-1" d="M6.22,160.08a1.07,1.07,0,0,0,.09.6A2.43,2.43,0,0,0,6.22,160.08Z"/><polygon class="cls-1" points="5.62 161.79 5.73 161.57 5.77 161.05 5.62 161.79"/><path class="cls-1" d="M6.29,151.16l-.16-.81c-.19-.08-.3.14-.23.44S6.11,151.29,6.29,151.16Z"/><path class="cls-1" d="M4.79,153.61c.11-.22.23-.23.41-.36l-.68,0Z"/><path class="cls-1" d="M4.63,151.25c-.19-.08-.54-1.18-.5-.15C4.32,151.18,4.47,152,4.63,151.25Z"/><polygon class="cls-1" points="5.49 139.04 5.5 139.25 6.61 139.22 5.49 139.04"/><path class="cls-1" d="M2.82,128.29c-.27,1,.69.22.36,1.09.26.23.27-.71.5-.48C3.4,128.32,3.55,128,2.82,128.29Z"/><path class="cls-1" d="M3.68,128.9a1.77,1.77,0,0,0,.16.3A1.2,1.2,0,0,0,3.68,128.9Z"/><polygon class="cls-1" points="8.46 7.48 8.69 6.86 8.32 7.26 8.46 7.48"/><path class="cls-1" d="M7.63,6.29l.71-.14L7.7,5.78C7.73,5.92,7.79,6.19,7.63,6.29Z"/><path class="cls-1" d="M2,90.64l.17,0c.19-.09.2-.24.23-.53Z"/><polygon class="cls-1" points="2.48 82.27 2.47 82.41 3.11 82.14 2.48 82.27"/><path class="cls-1" d="M1.66,75.24c0,.29.12.62.09.91C1.64,75.53,2.46,75.16,1.66,75.24Z"/><path class="cls-1" d="M444,5.62c1,.71,3.72-.12,5.55.14l.3.16.83-.57A56.43,56.43,0,0,1,444,5.62Z"/><path class="cls-1" d="M438.52,4.08c.34.27-1.18.24,1.28.08l-.23-.07C439.34,4.1,439,4.1,438.52,4.08Z"/><path class="cls-1" d="M439.57,4.09c1.08,0-.71-.23,0,0Z"/><path class="cls-1" d="M434.57,4.25,436,4c-.3-.16-1.57-.2-1.1-.32C433.44,3.82,433.74,4,434.57,4.25Z"/><path class="cls-1" d="M433.22,4.77l.74-.1C433.83,4.6,433.63,4.58,433.22,4.77Z"/><path class="cls-1" d="M435.52,4.45,434,4.67c.2.11.23.34.72-.08C434.55,4.8,434.86,4.6,435.52,4.45Z"/><path class="cls-1" d="M436.41,4.55c.8.16,1.83.26.4.5C439.54,5,439.14,4.45,436.41,4.55Z"/><path class="cls-1" d="M443.47,6.36l1.07.21.92-.24C445,6.45,443.41,6.13,443.47,6.36Z"/><path class="cls-1" d="M425.7,3.88c-.09.15.47.41.58.6l1.05-.17C426.79,4.2,425.77,4.11,425.7,3.88Z"/><path class="cls-1" d="M426.28,4.48l-1.57.26C426.11,4.77,426.37,4.65,426.28,4.48Z"/><polygon class="cls-1" points="432.97 5.57 435.55 5.02 432.47 5.57 432.97 5.57"/><polygon class="cls-1" points="419.68 3.86 420.57 3.51 418.98 4.04 419.68 3.86"/><path class="cls-1" d="M415.69,3.92c.66-.29-.9-.49-.2-.67a12.58,12.58,0,0,0-2.85.53A9,9,0,0,1,415.69,3.92Z"/><path class="cls-1" d="M411.24,4.11c.45-.07.9-.2,1.4-.33A7.1,7.1,0,0,0,411.24,4.11Z"/><path class="cls-1" d="M422,4.67a2,2,0,0,0-1.24-.44l.62.43Z"/><path class="cls-1" d="M421.43,4.67h0l-1.33,0Z"/><path class="cls-1" d="M422.18,4.67H422C422.08,4.71,422.12,4.72,422.18,4.67Z"/><path class="cls-1" d="M428.84,5.18c-.93.24-2.86.49-1,.86C428.51,5.75,427.45,5.54,428.84,5.18Z"/><path class="cls-1" d="M423,5.2l1.67.1c0-.11-.33-.28.13-.4Z"/><polygon class="cls-1" points="422.13 5.34 422.95 5.2 422.33 5.17 422.13 5.34"/><path class="cls-1" d="M414.11,4.51a11.74,11.74,0,0,1-2.41.23c1,.08,1.95.13,2.89.13C414.72,4.73,415.13,4.49,414.11,4.51Z"/><path class="cls-1" d="M417.66,4.63l-.16,0C417.6,4.69,417.68,4.7,417.66,4.63Z"/><path class="cls-1" d="M402.92,4.74l.14.07,0-.07Z"/><path class="cls-1" d="M414.75,5a3.39,3.39,0,0,0,1.56-.16c-.54,0-1.11.07-1.72.08C414.53,4.93,414.52,5,414.75,5Z"/><path class="cls-1" d="M408.79,4.31c.38.09.8.16,1.25.23C409.67,4.41,408.93,4.2,408.79,4.31Z"/><path class="cls-1" d="M417.26,4.53l.11,0C417.13,4.42,417.16,4.47,417.26,4.53Z"/><path class="cls-1" d="M417.26,4.53a6.45,6.45,0,0,0-.95.26,11.85,11.85,0,0,0,1.19-.14Z"/><path class="cls-1" d="M400.25,7.48c.13-.4,2-.76,3.65-.34,1.61-.3.56-1.6-.84-2.33-.05.18-.05.34-1.71.57.58.22,3.67.51,2.28.86-2.19.21-1.8-.14-2.86-.35.9.5-2.79.72-2.31,1.45l1.92-.26C400.42,7.2,399.72,7.38,400.25,7.48Z"/><path class="cls-1" d="M406.21,4.85l.68,0a10.26,10.26,0,0,1-2.36-.53c-1.13.19-1.36.34-1.44.47l3.35,0Z"/><path class="cls-1" d="M409.94,4.8c-.53.43-2.16.62-1.16,1.08,2,0,1.39-.36,2.59-.54-3.22.1.92-.24-1.41-.49.64-.07,1.21-.09,1.74-.11-.58,0-1.14-.12-1.66-.2l.07,0h0c.14.06.19.09,0,.06h-.07a.42.42,0,0,1-.14.16c-.93-.09-.15-.11.14-.16a.1.1,0,0,0,0-.07h0l-3.22.23A27,27,0,0,0,409.94,4.8Z"/><path class="cls-1" d="M426.13,7c-.1,0-.1-.06-.1-.1C425.82,6.92,425.74,7,426.13,7Z"/><path class="cls-1" d="M424.8,6.7a2.4,2.4,0,0,1,1.2-.18c.66.13,0,.2,0,.34.46-.11,1.61-.3.16-.51L426,6.4a7.28,7.28,0,0,1-2.75-.74A4.33,4.33,0,0,0,424.8,6.7Z"/><path class="cls-1" d="M417.28,5.86l-2.69.22,1.37.37-.07-.23C417.42,6.31,417.09,6,417.28,5.86Z"/><polygon class="cls-1" points="402.61 4.52 402.96 4.07 401.41 4.71 402.61 4.52"/><polygon class="cls-1" points="399.12 4.58 399.25 4.18 398.32 4.42 399.12 4.58"/><path class="cls-1" d="M202.1,9.49l-.79.11A7.85,7.85,0,0,0,202.1,9.49Z"/><path class="cls-1" d="M207.81,9.51l.14-.19C207.69,9.43,207.58,9.5,207.81,9.51Z"/><path class="cls-1" d="M313.37,4.62c-1.15-.37-2.43-.94-2.29-.5l.35.44A7,7,0,0,1,313.37,4.62Z"/><path class="cls-1" d="M254.65,7.21l.33.13.78-.41Z"/><path class="cls-1" d="M253.84,9l-1.52-.28A12.22,12.22,0,0,0,253.84,9Z"/><path class="cls-1" d="M170.88,10l-.92.44C171.4,10.39,170.77,10.16,170.88,10Z"/><path class="cls-1" d="M363.36,4.74a17.49,17.49,0,0,0-2.48-.27C362.08,4.72,363,5.1,363.36,4.74Z"/><path class="cls-1" d="M204.35,4.88c-.49.08-.69.17-.68.27C204.17,5.07,204.45,5,204.35,4.88Z"/><path class="cls-1" d="M358,4.48l.52.1a17.09,17.09,0,0,1,2.34-.11A5.66,5.66,0,0,0,358,4.48Z"/><path class="cls-1" d="M57.68,9.59a2.44,2.44,0,0,1-.26-.06C57.4,9.59,57.51,9.6,57.68,9.59Z"/><path class="cls-1" d="M24.7,5.21c.32,0,.85,0,1.35,0A7.14,7.14,0,0,0,24.7,5.21Z"/><path class="cls-1" d="M385.07,4.39c.74,0,.12,0,0,0Z"/><path class="cls-1" d="M388.67,6.1c-.16.05-.28.11-.3.21A.55.55,0,0,1,388.67,6.1Z"/><path class="cls-1" d="M350.64,7.18h-.06C350.8,7.26,350.76,7.24,350.64,7.18Z"/><path class="cls-1" d="M386.18,4.58c-.27,0-.59-.09-.94-.13A7.3,7.3,0,0,0,386.18,4.58Z"/><path class="cls-1" d="M386,4.38l.65,0C386.77,4.35,386.69,4.3,386,4.38Z"/><path class="cls-1" d="M384,4.41a11.63,11.63,0,0,1,1.2,0c-.15,0-.21,0-.17-.06Z"/><path class="cls-1" d="M118.34,8.43l-.16,0C117.43,8.56,117.76,8.54,118.34,8.43Z"/><path class="cls-1" d="M294.1,9.13l.08,0h-.11Z"/><path class="cls-1" d="M291.44,9.45a4,4,0,0,1,2.63-.36l-.88-1.25Z"/><path class="cls-1" d="M188.41,9.61l1.87.39c-2.25.64-3.88.42-2.13,1,.26-1.36,7.26-.14,7.52-1.5l1.23.29c-.35,0-.41.07-.76.05,2.4.65,1.78-1,4.87-.79,1.07.11,1.82.31,1.09.47l2.39-.34c.7,0,.53.26-.16.24L208,9.28l0,0a21.44,21.44,0,0,1,2.28-.68c.93.19-.46.14-.22.31l2-.33c.82.35-.85.69-2.25.64,1.89,1.36,1.68-.34,5.76.45l-1.92.18c1.24.77,2.73.49,4.89,1-.52-.25-4.33-1.21-2.13-1.55A6.56,6.56,0,0,0,219,9.19c0,.48,1.17.36,2.61.33l-.1.64c1.57-.18,1.45-.51,2.37-.8,1.74.07,2.1.56,2.51,1,2.8.1-1.93-.79,1.38-.91A25.64,25.64,0,0,0,234.5,9c1.63.22-.28.39.3.57l1.44-.51c.35,0,.24.17.18.25,1.22-.2.1-.64,2-.81.52-.71,3.92,1,6.28.22.59.19-.28.4-.1.64a35.29,35.29,0,0,0,5.44-1.08l2.27.42c-1.67-.48.46-1.05,2.33-1.52-.59-.23-1.1-.43-1.44-.53l3-.34c.36.1.06.32-.43.59l.54-.16c1.07.24.52.61-.25,1L255,7.34c-.73.39-1.42.82-1.27,1.2a4.2,4.2,0,0,1,1-.18c-.19.11-.32.2-.23.27s.41-.08.9-.24l.68.71.16-.28,3.89.45c2.79-.72,5.21-1.78,9.63-2.07-1.09.52-.23.85-.29,1.47-1.21-.66-3.43.28-5.72.15,1.2.06.94.36.63.46l4.09-.59c-.09.5.87.38,1.93.59-.8-1,3.05-.67,4.71-1,.11.34-.29.68-2.32.6,2.24.75,2.89-1.18,5.09-.54-.5,0-.77,0-1,.13,1.16-.3,4-.06,3.32.23h-.5c3.29.12,10,0,10.51-.84a3.64,3.64,0,0,1-.63,1.19l5.86-2.86c-.51.73,1.47,2.47-1.26,2.88a10.38,10.38,0,0,0,3.41,0C297.05,9,296.25,8,297,8a23.16,23.16,0,0,0,3.86,1.13c-.8-.16.09-1.3,1.36-1.27-.2.17.1,1.13-.36,1.25L305,7.94c-.79.2-.14,1,.57,1.27-.33-.22,2.72,0,3.56-.09l-1.34-.26c3.56.17,3.52-1.58,7-1.53-.42.24-1.05,1.43.74,1.58.82-.58,3.64-2.77,6.76-3.22l.6.33,2.4-.37a55.61,55.61,0,0,1-8,3.4c1.33.26.37.38,2.36.35.7.31-1.09.47-1.67.49l4.64.2c-.21-.67,3.54-.67,3.37-1.23l-5,.69c-.21-.67,2.91-1.91,6.2-1.79.83.27-.63,1.2-.56,1.42a10.16,10.16,0,0,1,3.42-.27l-1.39.36c1.83.25,3-.9,5.18-.25.76,0,2.27.86,2.4.46-1.24-.76-1.48-3.14-.65-3.71a44,44,0,0,1,4.85,1.11c1.25.6-1.88,1.43-.81,2,0-.18.73-.41,1-.48.8.15-.33.57,1.4.48.29-.68,3.53.06.82-.57,1.7-.2,1.8.14,3.79.11-.63-.44,1.79-1.5,3.49-1.7-.1.18.28.4.46.51,3.47.06,5.34.37,8.58.37.3.17,1.86.37,1.19.66a6.07,6.07,0,0,1,1.9-.37c1.93.59-2.23.09-.76.8.13-.39,2.59-.54,4-.79-.44-.61-3.29-.12-4.71.13,0-.85,2.47-1.73,5.85-2.12,2.69-.21,1.17.55,1.64.43,5.05.14,4.3-1.48,8.5-.87,1.66.54.07,1.07.44,1.46-2.19.2-3.36-.34-4.85-.32l1.83.25a8.55,8.55,0,0,1-3,.16c1.4.48,8.54.09,12.44.54.69-.18,1.89-.37,1.32-.58L383.83,7c-1.13-.43,2.32-.6.76-.8a19.09,19.09,0,0,1,5.84-.54l.44.62a3.75,3.75,0,0,0-2.18-.18c1-.27,3.57.83,4.63,0l-1.63-.42a20.73,20.73,0,0,1,5.78-.77c-.94-.6-.48.07-1.94-.64,1.27.89-5.28,0-3.24.89-1.51-.82-2.61-.35-4.57-1,.06.21.69.39-1,.29a2.25,2.25,0,0,1-.38.18l-.12,0,.1,0c-.08,0-.08,0,0,0a2.41,2.41,0,0,1,.89.3c-.86.47-3.62.45-4.55.69-1-.09.43-.23-.13-.44l-1.39.36c-.14-.45-2.74-.75-.31-1l-2.18,0a13,13,0,0,0-4.14-.17c-1-.09-2.6.5-1.7.15l-3.42.28,0-.12c-3.37,0-6.94.75-10.8-.06a22.22,22.22,0,0,1-4.21.12L354,4.31c-1.46.14-4.38-.39-5,0-1.57-1.05-7.07-.23-9.64-.41l-.1.5a51.68,51.68,0,0,0-5.64.32l.13.45c-1.89.37-4.86-.32-7.85-.27a2.7,2.7,0,0,1,1.5,0c-3.57-1-7.53.74-10.77,0a4.59,4.59,0,0,1-2,0,.56.56,0,0,0,.2,0h-.33c-.35-.08-.72-.17-1.12-.24a5.91,5.91,0,0,0,.94.24c-.62,0-1.56.07-2.49.18l-.39-.48h-.22c-.9-.18-.73.23-.24.59a7.32,7.32,0,0,0-1.22.29c-.74-.78-2.43.26-3.44-.57-.62.41-4.65.31-5.14,1.16,0-.11-.31-.17.19-.17a8.73,8.73,0,0,0-3,0l-.44-.61-2.25.82c-1.37-.37-1.94-.59-.58-1.06-3.28.73-2.66.28-5.45,1l.13-.39c-1,0-2.59.54-3.19.22-2.23-.76-11-.11-16.76-.81,1.11,1.17-2.67-.52-2.89.38-.34-.27-1.13-.43-.21-.67-2.92.27-4.39-.43-6.4.33-.34-.28.62-.41.32-.57a2.29,2.29,0,0,1-1.23.08c-.3-.17.43-.24.89-.36-3,0-3.29.9-3.5,1.7a4.19,4.19,0,0,0-3.36.2c-.53-.26-1.41-.54.45-.63-1,0-6.38-.38-6.48.26a4.24,4.24,0,0,0-1.74,0c-2.34,0-2.54-.09-4.84,0l.63.1c-.9.77-1.91.17-3.76.27l.05-.08c-4.25-.56-1.83.26-6-.37l.23.48c-.39,1-3.71-.61-6.15-.22l.88.28c-1.33.35-3.71-1.4-5-1.53-.29-.09.46-.15.87-.21-3.5-.61-.46.62-3.06.77-.48-.34.62-.86-1.13-.92-.88-.28-5.09,1.1-7.48.45.53.26,1.05.52-.16.71-1.85.1-5-1-6.68-.16-.24-.07-.33-.14-.34-.2-1.41.21-4.6.35-5.46.8-1.31-1.66-8.81.8-8.78-.73l-4.35.08.11-.15a10.23,10.23,0,0,0-4.75.63c-.65-.1-.18-.25-.12-.33a19.08,19.08,0,0,0-7.89.52l-.36-.49c-.92.28-5.88-.78-9.88-.2,0-.06.13-.16.44-.23-4.49.59-10.75-1.37-12.4.44l-3,.44c3.83.14-.57.78,1,1.08-1.5.11-3.9-.54-2-.63l.29.09c.68-.94-4.77-.34-4.67-1-7.54,0-14.9-.47-22-.51l.82.73-2.47,0c-.65-.17-.87-.58.89-.55a4.35,4.35,0,0,0-3,.51c-3.44-.3,1.35-.85.29-.87L115,4.82l.33.08a7.72,7.72,0,0,1-3.38.58c-1.34-.15-.69-.45-1.22-.48,0,0-.17-.08-.8,0l-3.11-.06,1.24.57c-1.37.29-2.92,0-1.49.63-2.1-1-11.59-.36-12.88-.68a25.94,25.94,0,0,1-6.19.37c.59.12.94.77-1.09.69C87.12,5.16,82.65,5.91,81,5c1.47.64-5.79.16-3.48,1.07-1.7-.11-.1-.51-1.39-.82-4,.52-8.9-.34-13.9-.16-.08.17.76.44-.31.7l-2.64-.88c-1,.09-.9,1-2.71.41.26.15.64.37,0,.43-9.79-.86-20,.7-29.93-.91,1.35.34.45.37-.58.39.67.08,0,.43.12.67L22,5.19c-.76.66-4.46,0-4.89.67l1.32-.11c-1.76.75,2.45,1.66,2.19,2.62,2-.85,5.17,1.25,8.39,0,.71.19-.61.31-.23.53a6.36,6.36,0,0,1,3.63-.31l-.21.1c5.13-.1,7.33.3,13.09.57l-.43-.47A8.65,8.65,0,0,1,47,9.16c1.42-.72-3.48,0-2.18-.83,1.64,1,8.73,0,9.84,1.11,1.9,0-.56-.55,1.34-.54l.51.29.48-.38c1.25.06,1.88.43,1.93.68-.31,0-.87.08-1.19.1,1.62.35,4.57-.12,5.12,0L61,9.4c5.2-.28,11.55.11,16.57-.49l-.38-.23c3.83-.41,3.07.25,7.28.06l-.16,0a12.2,12.2,0,0,1,3.12-.31c-1.06.26,2,.51.61.8,4.16-.44,2.06-.35,4.8-1.18l.64.37a7,7,0,0,1,3.11-.61c-1.72.32,1.34.57-.59,1,4.41.81,6.55-.82,8.58.37,2-1-3.82-.57-2.69-.79-1-.34,1.68-.77,3.06-.67s2.4,1.32,5.94,1.3c-.35,0-.37.07-.72.06,1.32.27,2.6-.35,4.22.08.92-.62,2.12,0,2.38-.76l-3.25.18c1.84-.2,3.57-1.13,6.61-.68a7.78,7.78,0,0,1-1.76.49c.88.23,1.71-.16,2.63.08-.27.79-4,.17-5.93.78.95.33,3.74-.58,2.74.28,1.43-1.09,3.5.14,5.9-.69l-.16.47a9.21,9.21,0,0,1,1.87-.29l-1.27.62c1.94-.53,3.75.46,5.61.17-3.9,0-.87-.57-2.53-.92,4.82-.63,2.77,1.25,8.16,1-.73.06-2.74-.29-1.59-.51a14.39,14.39,0,0,1,3,.53c3.57-.1-.55-.49,1-.78,1.21.58,1.75-.23,3.32-.42v.48c4.07.31,1.08-1,4.74-.63l-1.55.67,1.91-.17-.39.55a13.65,13.65,0,0,1,4.76-.15c-.47-.34.27-.88,2.07-.89,1.23.29-.69.46,1.87.39a2.4,2.4,0,0,1-2.32.24c-.12.15-.57.3-.69.45a18,18,0,0,0,4.25.07,4.54,4.54,0,0,1-1-.11L158.44,9c.58.18.12.33-.34.47.75-.05,1.27-.27,2.37-.31-.28.39-.21.79-1.78,1l3.53-.44c.24.17,1.81.47,1.36.62,1.95.23,4.8-.77,7.39-.46a2.69,2.69,0,0,1,1-.21c2.43.09,4.59.57,7.48,0l1.64.7c2.27-.16-2.22-.89,1.55-1.15,2.67-.23,1,.6,1.93.79a12.33,12.33,0,0,1,6.09-.5A20.87,20.87,0,0,1,188.41,9.61Zm27.92-.31c-.55.1-1.62.41-2,.13C214.93,8.88,215.4,9.14,216.33,9.3Zm42.43-1.16A3.11,3.11,0,0,1,257,8,6.18,6.18,0,0,1,258.76,8.14ZM377,4.78l-.05,0C375.69,4.61,376.12,4.69,377,4.78Zm2.51.21c.25-.07.23-.14.13-.2a3.2,3.2,0,0,1-1.38.09C378.39,5,378.71,5.1,379.46,5Zm-269,.19.48.12C109.81,5.44,110.12,5.32,110.43,5.18Z"/><path class="cls-1" d="M253.94,8.8a.46.46,0,0,1-.23-.26C253.5,8.62,253.5,8.71,253.94,8.8Z"/><path class="cls-1" d="M171.05,9.86H171a.25.25,0,0,0-.09.09Z"/><path class="cls-1" d="M340.65,9.08a3.4,3.4,0,0,1-1-.25C339.63,9,339.86,9.05,340.65,9.08Z"/><path class="cls-1" d="M392.73,4.17l-1.6.12a5.11,5.11,0,0,1,1.44.16C392.54,4.34,392.23,4.18,392.73,4.17Z"/><path class="cls-1" d="M406.66,7.15c.24-.05.5,0,.73-.06l-.06-.23C406.33,6.88,405.63,7.06,406.66,7.15Z"/><path class="cls-1" d="M394.22,5.77c.13.41,1.13.27,2.26.19h-.2C396.61,5.4,395.41,5.58,394.22,5.77Z"/><path class="cls-1" d="M396.74,6a9,9,0,0,1,1,0C397.91,5.71,397.36,5.89,396.74,6Z"/><path class="cls-1" d="M382.64,4.72c.53.1.33-.52.63-.35C383.87,3.85,379.72,5,382.64,4.72Z"/><polygon class="cls-1" points="395.13 7.11 394.73 6.61 394.1 7.01 395.13 7.11"/><path class="cls-1" d="M386.25,6.74l1.8.14c0-.08.2-.13.48-.17A8.07,8.07,0,0,0,386.25,6.74Z"/><path class="cls-1" d="M388.53,6.71A6.65,6.65,0,0,0,390,6.63,13.4,13.4,0,0,0,388.53,6.71Z"/><polygon class="cls-1" points="392.67 7.26 392.14 7.16 390.88 7.12 392.67 7.26"/><path class="cls-1" d="M367,6.64l-2,.15c-.2.17.33.27,1.06.21C366.52,6.88,367.25,6.81,367,6.64Z"/><path class="cls-1" d="M372.87,8a2.1,2.1,0,0,1-.86-.38l-.06.62Z"/><path class="cls-1" d="M367.16,8.16c-.2.17-2.85.5-.36.46C367,8.45,369,8.3,367.16,8.16Z"/><polygon class="cls-1" points="337.62 7.38 338.12 7.37 338.05 6.35 337.62 7.38"/><path class="cls-1" d="M311.59,9.81c2.32.25.55-.63,2.65-.32.54-.24-1.72-.25-1.16-.46C311.68,9.29,310.94,9.14,311.59,9.81Z"/><path class="cls-1" d="M313.08,9l.72-.15A4.17,4.17,0,0,0,313.08,9Z"/><polygon class="cls-1" points="19.23 4.66 17.73 4.45 18.7 4.79 19.23 4.66"/><path class="cls-1" d="M16.36,5.42,16,4.77l-.9.59A2.87,2.87,0,0,1,16.36,5.42Z"/><path class="cls-1" d="M220.48,10.61l.11-.16c-.23-.17-.58-.18-1.28-.21Z"/><polygon class="cls-1" points="200.22 10.12 200.56 10.13 199.91 9.55 200.22 10.12"/><path class="cls-1" d="M183.21,10.87c.7,0,1.51-.11,2.21-.08C183.91,10.89,183,10.14,183.21,10.87Z"/><polygon class="cls-1" points="449.28 185.18 449.47 185.01 447.84 185.43 449.28 185.18"/><path class="cls-1" d="M438.91,185.18c1,.71,3.76-.12,5.61.13l.3.17.83-.58A59.82,59.82,0,0,1,438.91,185.18Z"/><path class="cls-1" d="M433.39,183.63c.34.28-1.2.24,1.29.09l-.24-.07C434.22,183.65,433.91,183.65,433.39,183.63Z"/><path class="cls-1" d="M434.44,183.65c1.1,0-.71-.24,0,0Z"/><path class="cls-1" d="M429.41,183.81l1.43-.25c-.3-.16-1.58-.2-1.1-.32C428.26,183.37,428.57,183.54,429.41,183.81Z"/><path class="cls-1" d="M428,184.33l.75-.11C428.66,184.15,428.46,184.13,428,184.33Z"/><path class="cls-1" d="M430.37,184l-1.58.22c.21.12.23.35.72-.08C429.38,184.35,429.7,184.15,430.37,184Z"/><path class="cls-1" d="M431.26,184.11c.81.16,1.85.25.41.5C434.42,184.51,434,184,431.26,184.11Z"/><path class="cls-1" d="M438.39,185.91l1.07.21.94-.24C439.93,186,438.32,185.69,438.39,185.91Z"/><path class="cls-1" d="M420.45,183.44c-.09.15.48.4.59.6l1.06-.18C421.56,183.76,420.52,183.66,420.45,183.44Z"/><path class="cls-1" d="M421,184l-1.59.26C420.87,184.33,421.13,184.2,421,184Z"/><polygon class="cls-1" points="427.79 185.12 430.39 184.57 427.28 185.13 427.79 185.12"/><polygon class="cls-1" points="414.38 183.42 415.28 183.07 413.68 183.6 414.38 183.42"/><path class="cls-1" d="M410.36,183.48c.67-.29-.91-.49-.21-.67a12.77,12.77,0,0,0-2.87.53A8.94,8.94,0,0,1,410.36,183.48Z"/><path class="cls-1" d="M405.87,183.66c.45-.07.91-.19,1.41-.32A7.16,7.16,0,0,0,405.87,183.66Z"/><path class="cls-1" d="M416.75,184.22a2.1,2.1,0,0,0-1.25-.43l.62.43Z"/><path class="cls-1" d="M416.14,184.23h0l-1.35,0Z"/><path class="cls-1" d="M416.9,184.22h-.15C416.81,184.26,416.84,184.28,416.9,184.22Z"/><path class="cls-1" d="M423.62,184.73c-.93.24-2.88.5-1,.86C423.29,185.3,422.22,185.09,423.62,184.73Z"/><path class="cls-1" d="M417.68,184.76l1.69.1c0-.12-.34-.28.12-.4Z"/><polygon class="cls-1" points="416.85 184.89 417.68 184.76 417.05 184.72 416.85 184.89"/><path class="cls-1" d="M408.76,184.06a11.24,11.24,0,0,1-2.42.23c1,.09,2,.13,2.91.13C409.38,184.29,409.8,184.05,408.76,184.06Z"/><path class="cls-1" d="M412.35,184.18l-.16,0C412.29,184.24,412.37,184.25,412.35,184.18Z"/><path class="cls-1" d="M397.47,184.29l.14.08,0-.07Z"/><path class="cls-1" d="M409.41,184.5a3.46,3.46,0,0,0,1.57-.15c-.54,0-1.12.07-1.73.07C409.19,184.48,409.17,184.52,409.41,184.5Z"/><path class="cls-1" d="M403.4,183.86c.38.09.8.17,1.25.24C404.29,184,403.53,183.75,403.4,183.86Z"/><path class="cls-1" d="M411.94,184.09l.11,0C411.81,184,411.84,184,411.94,184.09Z"/><path class="cls-1" d="M411.94,184.09a5.79,5.79,0,0,0-1,.26c.44,0,.85-.08,1.21-.14A1.45,1.45,0,0,1,411.94,184.09Z"/><path class="cls-1" d="M394.78,187c.13-.39,2-.76,3.68-.33,1.62-.3.57-1.6-.85-2.33-.05.17-.05.33-1.72.57.59.21,3.7.5,2.3.86-2.21.2-1.81-.14-2.89-.35.92.49-2.81.72-2.33,1.44l1.94-.25C395,186.75,394.24,186.93,394.78,187Z"/><path class="cls-1" d="M400.79,184.41l.68,0a11,11,0,0,1-2.37-.54c-1.14.2-1.38.34-1.46.48l3.38,0Z"/><path class="cls-1" d="M404.55,184.36c-.53.43-2.18.61-1.17,1.08,2,0,1.41-.36,2.61-.55-3.24.11.94-.24-1.41-.48.64-.08,1.21-.1,1.76-.12-.59,0-1.15-.11-1.69-.19l.08,0h0c.14.05.19.09,0,.05h-.07a.39.39,0,0,1-.15.17c-.94-.09-.14-.12.15-.17,0,0,0,0,0-.06h0l-3.26.24A27.59,27.59,0,0,0,404.55,184.36Z"/><path class="cls-1" d="M420.89,186.52c-.1,0-.1-.07-.11-.1C420.57,186.47,420.49,186.51,420.89,186.52Z"/><path class="cls-1" d="M419.55,186.26a2.48,2.48,0,0,1,1.2-.19c.67.13,0,.21,0,.35.47-.11,1.63-.31.17-.52l-.23.06a7.66,7.66,0,0,1-2.76-.74A4.42,4.42,0,0,0,419.55,186.26Z"/><path class="cls-1" d="M412,185.42l-2.71.21,1.38.37-.07-.22C412.1,185.87,411.77,185.59,412,185.42Z"/><polygon class="cls-1" points="397.16 184.08 397.52 183.62 395.95 184.26 397.16 184.08"/><polygon class="cls-1" points="393.64 184.13 393.77 183.74 392.84 183.97 393.64 184.13"/><path class="cls-1" d="M194.87,189l-.8.11A5.66,5.66,0,0,0,194.87,189Z"/><path class="cls-1" d="M200.64,189.07l.14-.2C200.51,189,200.4,189.06,200.64,189.07Z"/><path class="cls-1" d="M307.13,184.18c-1.16-.37-2.46-1-2.32-.5l.36.43A6.72,6.72,0,0,1,307.13,184.18Z"/><path class="cls-1" d="M247.88,186.77l.34.13.79-.42Z"/><path class="cls-1" d="M247.07,188.56l-1.53-.28A10.51,10.51,0,0,0,247.07,188.56Z"/><path class="cls-1" d="M163.38,189.5l-.93.44C163.9,189.94,163.26,189.72,163.38,189.5Z"/><path class="cls-1" d="M357.56,184.29a17.69,17.69,0,0,0-2.5-.26C356.27,184.28,357.24,184.65,357.56,184.29Z"/><path class="cls-1" d="M197.14,184.44c-.49.08-.7.16-.68.26C197,184.63,197.24,184.54,197.14,184.44Z"/><path class="cls-1" d="M352.17,184l.53.1a17.41,17.41,0,0,1,2.36-.1A5.77,5.77,0,0,0,352.17,184Z"/><path class="cls-1" d="M49.17,189.14l-.26,0C48.89,189.15,49,189.15,49.17,189.14Z"/><path class="cls-1" d="M15.9,184.76c.32,0,.86,0,1.36,0A7.24,7.24,0,0,0,15.9,184.76Z"/><path class="cls-1" d="M379.46,183.94c.75,0,.12-.05,0,0Z"/><path class="cls-1" d="M383.1,185.66c-.16.05-.28.11-.3.21A.45.45,0,0,1,383.1,185.66Z"/><path class="cls-1" d="M344.73,186.73h-.06C344.89,186.81,344.85,186.8,344.73,186.73Z"/><path class="cls-1" d="M380.59,184.14c-.28,0-.61-.1-1-.13C379.79,184,380.08,184.09,380.59,184.14Z"/><path class="cls-1" d="M380.44,183.93l.65,0C381.18,183.9,381.1,183.86,380.44,183.93Z"/><path class="cls-1" d="M378.42,184a11.73,11.73,0,0,1,1.21,0c-.14,0-.21,0-.17-.07Z"/><path class="cls-1" d="M110.36,188l-.16,0C109.45,188.12,109.78,188.09,110.36,188Z"/><path class="cls-1" d="M287.69,188.68l.08,0h-.11Z"/><path class="cls-1" d="M285,189a4,4,0,0,1,2.66-.35l-.89-1.26Z"/><path class="cls-1" d="M181.06,189.17l1.89.39c-2.28.64-3.92.42-2.15,1,.26-1.36,7.32-.14,7.58-1.5l1.24.28c-.35,0-.41.07-.76.06,2.42.65,1.79-1,4.91-.79,1.08.1,1.84.3,1.1.46l2.42-.33c.7,0,.53.26-.17.23l3.68-.11,0,0a22.06,22.06,0,0,1,2.3-.68c.93.2-.47.15-.23.31l2-.32c.83.35-.86.69-2.27.64,1.9,1.35,1.69-.34,5.81.45l-1.93.17c1.24.77,2.74.49,4.92,1-.51-.25-4.36-1.21-2.14-1.55a6.3,6.3,0,0,0,2.64-.12c0,.48,1.18.37,2.64.34l-.1.64c1.58-.19,1.45-.51,2.38-.8a2.92,2.92,0,0,1,2.54,1c2.82.1-1.95-.8,1.39-.92a25.66,25.66,0,0,0,6.79-.4c1.64.22-.29.39.3.58l1.46-.51c.35,0,.24.16.18.24,1.22-.19.1-.64,2-.81.51-.7,3.95,1,6.33.23.59.18-.28.39-.1.64a35.94,35.94,0,0,0,5.49-1.09l2.29.42c-1.69-.48.46-1.05,2.34-1.51-.59-.24-1.1-.44-1.44-.54l3-.34c.36.11.06.33-.43.59l.55-.15c1.07.24.51.61-.26,1l-1.08-.39c-.74.39-1.43.82-1.28,1.19a4.29,4.29,0,0,1,1-.17c-.2.1-.32.2-.23.26s.41-.07.9-.24l.69.72.16-.29,3.93.45c2.81-.72,5.25-1.77,9.71-2.07-1.1.53-.23.86-.29,1.48-1.22-.66-3.46.27-5.77.14,1.21.07.94.37.63.47l4.13-.6c-.1.51.87.38,1.95.59-.81-1,3.07-.67,4.75-1,.1.33-.3.68-2.34.6,2.25.75,2.91-1.18,5.13-.54-.5,0-.77,0-1,.13,1.17-.3,4-.06,3.35.23h-.5c3.32.11,10.1,0,10.6-.85a3.53,3.53,0,0,1-.64,1.2l5.92-2.86c-.52.73,1.48,2.47-1.27,2.88a10.8,10.8,0,0,0,3.43,0c-.54-.11-1.34-1.06-.6-1.12a22.18,22.18,0,0,0,3.89,1.12c-.81-.15.09-1.3,1.37-1.26-.2.17.1,1.13-.36,1.25l3.17-1.13c-.79.21-.14,1,.58,1.27-.33-.22,2.74,0,3.59-.09l-1.35-.26c3.59.17,3.55-1.58,7.1-1.52-.43.23-1.06,1.43.75,1.57.83-.57,3.67-2.77,6.82-3.21l.61.33,2.41-.38a54.62,54.62,0,0,1-8,3.4c1.34.26.37.39,2.38.36.71.31-1.09.47-1.68.49l4.68.2c-.21-.68,3.58-.68,3.4-1.24l-5.09.7c-.2-.67,2.94-1.91,6.26-1.79.84.27-.63,1.2-.56,1.42a10.62,10.62,0,0,1,3.45-.28l-1.41.36c1.85.25,3-.89,5.24-.25.76,0,2.28.87,2.41.47-1.24-.77-1.49-3.14-.66-3.72a44.92,44.92,0,0,1,4.9,1.12c1.26.6-1.89,1.43-.82,1.95.05-.19.74-.41,1-.49.81.16-.33.57,1.42.49.29-.68,3.55.06.82-.58,1.71-.19,1.82.14,3.83.11-.64-.44,1.8-1.5,3.51-1.69-.1.17.28.4.47.5,3.5.06,5.39.37,8.65.38.3.16,1.88.36,1.21.66a5.8,5.8,0,0,1,1.91-.37c1.95.59-2.25.09-.76.8.13-.4,2.6-.55,4-.8-.44-.61-3.32-.11-4.75.13,0-.84,2.49-1.72,5.91-2.11,2.71-.21,1.17.54,1.64.42,5.1.15,4.35-1.47,8.58-.86,1.68.53.08,1.07.45,1.45-2.21.21-3.4-.34-4.89-.32l1.84.26a8.92,8.92,0,0,1-3,.16c1.41.48,8.61.09,12.54.54.7-.18,1.91-.37,1.34-.59l-1.25.08c-1.14-.44,2.34-.6.77-.8a18.82,18.82,0,0,1,5.89-.54l.44.61a3.87,3.87,0,0,0-2.19-.18c1-.27,3.6.83,4.67,0l-1.64-.43a21.39,21.39,0,0,1,5.83-.76c-1-.61-.48.07-2-.64,1.28.88-5.33,0-3.27.89-1.52-.82-2.63-.35-4.61-1.05.06.2.7.39-1.05.29a1.9,1.9,0,0,1-.38.17h-.12l.09,0c-.07,0-.08,0,0,0a2.58,2.58,0,0,1,.89.31c-.87.46-3.65.45-4.59.69-1-.1.44-.23-.13-.45l-1.4.36c-.14-.45-2.76-.75-.32-1l-2.2,0a13.49,13.49,0,0,0-4.17-.16c-1-.1-2.62.5-1.72.14l-3.45.28,0-.11c-3.4-.06-7,.74-10.9-.07a22.51,22.51,0,0,1-4.25.13l-.37-.39c-1.47.13-4.42-.39-5.05,0-1.59-1-7.14-.22-9.73-.41l-.1.51a50.28,50.28,0,0,0-5.7.32l.14.45c-1.91.36-4.9-.32-7.92-.28a2.75,2.75,0,0,1,1.51,0c-3.6-1-7.6.74-10.86,0a4.66,4.66,0,0,1-2,0l.2,0h-.33c-.36-.07-.73-.16-1.13-.23a9.45,9.45,0,0,0,.95.24c-.63,0-1.58.06-2.51.17l-.4-.48-.22,0c-.91-.18-.73.22-.24.59a7.86,7.86,0,0,0-1.24.29c-.74-.78-2.45.26-3.46-.57-.63.4-4.7.3-5.19,1.15,0-.11-.31-.16.19-.17a9.16,9.16,0,0,0-3,.05l-.44-.61-2.27.82c-1.38-.37-2-.59-.59-1.06-3.3.72-2.68.27-5.5,1l.14-.4c-1,0-2.61.55-3.22.22-2.25-.75-11.13-.1-16.91-.8,1.12,1.17-2.69-.52-2.92.38-.33-.27-1.14-.43-.2-.67-2.95.27-4.43-.44-6.47.32-.33-.27.63-.4.33-.56a2.24,2.24,0,0,1-1.24.07c-.3-.16.43-.23.9-.35-3,.05-3.32.9-3.54,1.69a4.36,4.36,0,0,0-3.39.2c-.53-.26-1.41-.53.46-.63-1.06,0-6.43-.38-6.54.26a4.28,4.28,0,0,0-1.75,0c-2.36,0-2.57-.1-4.89,0l.64.11c-.91.77-1.92.17-3.79.26l.05-.08c-4.29-.55-1.85.27-6.08-.37l.23.48c-.4,1-3.75-.6-6.21-.21l.89.27c-1.34.36-3.75-1.4-5.09-1.53-.3-.09.46-.14.87-.21-3.53-.61-.46.63-3.08.78-.49-.34.62-.87-1.15-.93-.88-.27-5.13,1.1-7.54.45.53.26,1.06.52-.16.72-1.87.09-5.06-1-6.75-.16-.23-.08-.32-.14-.33-.21-1.43.21-4.65.35-5.51.8-1.32-1.66-8.89.81-8.86-.72l-4.39.08.11-.16a10.36,10.36,0,0,0-4.79.64c-.65-.11-.18-.25-.12-.33a19.23,19.23,0,0,0-8,.52l-.36-.5c-.94.29-5.94-.78-10-.2,0-.05.12-.15.44-.22-4.53.58-10.85-1.37-12.51.43l-3,.45c3.87.14-.57.78,1,1.08-1.52.1-3.94-.55-2.07-.64l.3.09c.68-.94-4.81-.33-4.71-1-7.61,0-15-.48-22.17-.52l.82.73-2.48,0c-.66-.17-.88-.57.89-.54a4.4,4.4,0,0,0-3,.51c-3.48-.3,1.36-.86.29-.87l-1.45.05.33.09a8,8,0,0,1-3.41.58c-1.35-.15-.69-.46-1.23-.48,0-.06-.17-.08-.81,0l-3.14-.07,1.26.58c-1.39.29-3,0-1.5.62-2.13-1-11.7-.36-13-.67a26.39,26.39,0,0,1-6.24.36c.59.12.94.77-1.11.69.75-1.34-3.76-.58-5.42-1.54,1.48.64-5.83.15-3.51,1.06-1.71-.11-.1-.5-1.4-.81-4.07.51-9-.34-14-.17-.08.18.77.45-.31.71l-2.66-.88c-1,.09-.92,1-2.74.4.26.15.64.38,0,.43-9.86-.85-20.16.7-30.18-.91,1.35.34.45.38-.59.39.68.08,0,.44.12.67l-4.2-.66c-.76.66-4.5,0-4.93.68l1.33-.11c-1.77.74,2.47,1.65,2.21,2.61,2-.85,5.22,1.26,8.46,0,.72.2-.61.31-.22.54a6.4,6.4,0,0,1,3.65-.32l-.2.1c5.17-.1,7.39.31,13.2.58l-.43-.47a8.87,8.87,0,0,1,2.1.33c1.43-.72-3.51,0-2.21-.84,1.66,1,8.81,0,9.93,1.11,1.92,0-.56-.55,1.36-.54l.51.3.48-.38c1.26.06,1.9.43,1.95.68a10,10,0,0,0-1.2.09c1.63.35,4.6-.12,5.17,0L52.49,189c5.24-.27,11.65.12,16.71-.49l-.38-.22c3.87-.41,3.1.25,7.34,0l-.15.06a11.51,11.51,0,0,1,3.15-.31c-1.08.26,2,.51.61.8,4.19-.45,2.07-.35,4.84-1.18l.64.37a7.09,7.09,0,0,1,3.15-.61c-1.74.32,1.35.56-.6,1,4.45.82,6.61-.81,8.65.37,2-1-3.85-.57-2.7-.79-1-.33,1.68-.76,3.08-.66s2.42,1.31,6,1.29c-.36,0-.38.07-.74.07,1.34.26,2.62-.35,4.27.07.92-.62,2.13,0,2.39-.75l-3.28.18c1.86-.21,3.61-1.13,6.67-.69a7.85,7.85,0,0,1-1.78.49c.9.23,1.73-.15,2.66.09-.27.79-4,.17-6,.77,1,.34,3.77-.57,2.77.29,1.43-1.09,3.52.13,5.94-.7l-.16.48a8.77,8.77,0,0,1,1.89-.29l-1.28.61c2-.52,3.78.46,5.66.18-3.94,0-.88-.57-2.55-.92,4.86-.64,2.79,1.24,8.23,1-.73.07-2.76-.28-1.61-.5a14.59,14.59,0,0,1,3,.53c3.6-.1-.56-.49,1-.78,1.23.58,1.77-.24,3.35-.42v.48c4.1.31,1.09-1,4.78-.63l-1.56.67,1.93-.18-.4.55a13.92,13.92,0,0,1,4.81-.14c-.48-.34.26-.88,2.08-.9,1.24.29-.69.46,1.89.39a2.4,2.4,0,0,1-2.35.24c-.11.16-.57.3-.69.46a18.94,18.94,0,0,0,4.29.07,5.27,5.27,0,0,1-1-.11l3.74-.67c.59.18.12.32-.34.47.76-.05,1.28-.28,2.39-.32-.28.39-.22.8-1.79,1l3.56-.43c.24.17,1.83.47,1.36.61,2,.23,4.85-.76,7.46-.46a3.15,3.15,0,0,1,1-.2c2.46.09,4.64.57,7.55,0l1.66.7c2.28-.15-2.24-.88,1.56-1.15,2.69-.22,1,.6,2,.8a12.41,12.41,0,0,1,6.14-.5C182.47,189.22,181.83,189.11,181.06,189.17Zm28.16-.31c-.54.1-1.63.41-2,.12C207.81,188.43,208.29,188.7,209.22,188.86ZM252,187.69a3.15,3.15,0,0,1-1.74-.1A6.68,6.68,0,0,1,252,187.69Zm119.25-3.36-.06,0C370,184.17,370.43,184.24,371.28,184.33Zm2.52.21c.26-.06.24-.13.13-.2a3.33,3.33,0,0,1-1.39.1C372.72,184.57,373.05,184.65,373.8,184.54Zm-271.42.19.5.13C101.76,185,102.08,184.87,102.38,184.73Z"/><path class="cls-1" d="M247.18,188.35a.45.45,0,0,1-.24-.26C246.73,188.17,246.72,188.27,247.18,188.35Z"/><path class="cls-1" d="M163.55,189.42h-.09a.22.22,0,0,0-.08.09Z"/><path class="cls-1" d="M334.65,188.63a3.17,3.17,0,0,1-1-.24C333.62,188.5,333.86,188.6,334.65,188.63Z"/><path class="cls-1" d="M387.2,183.72l-1.62.13A5,5,0,0,1,387,184C387,183.9,386.69,183.73,387.2,183.72Z"/><path class="cls-1" d="M401.25,186.71c.24-.06.5,0,.73-.07l-.06-.22C400.91,186.43,400.21,186.61,401.25,186.71Z"/><path class="cls-1" d="M388.7,185.33c.12.4,1.14.27,2.27.19h-.2C391.11,185,389.9,185.14,388.7,185.33Z"/><path class="cls-1" d="M391.24,185.51a9,9,0,0,1,1,0C392.42,185.27,391.86,185.45,391.24,185.51Z"/><path class="cls-1" d="M377,184.28c.54.1.34-.52.64-.36C378.25,183.4,374.07,184.55,377,184.28Z"/><polygon class="cls-1" points="389.61 186.66 389.21 186.16 388.57 186.57 389.61 186.66"/><path class="cls-1" d="M380.66,186.3l1.81.14c0-.09.2-.14.49-.18A8.44,8.44,0,0,0,380.66,186.3Z"/><path class="cls-1" d="M383,186.26a6.79,6.79,0,0,0,1.46-.08C384.1,186.19,383.42,186.2,383,186.26Z"/><polygon class="cls-1" points="387.14 186.81 386.6 186.71 385.32 186.67 387.14 186.81"/><path class="cls-1" d="M361.18,186.2l-2,.14c-.2.18.34.28,1.08.21C360.75,186.43,361.48,186.37,361.18,186.2Z"/><path class="cls-1" d="M367.16,187.57a1.91,1.91,0,0,1-.87-.38l-.06.62Z"/><path class="cls-1" d="M361.39,187.72c-.19.17-2.87.49-.36.45C361.23,188,363.21,187.86,361.39,187.72Z"/><polygon class="cls-1" points="331.6 186.93 332.1 186.92 332.02 185.91 331.6 186.93"/><path class="cls-1" d="M305.33,189.37c2.34.24.56-.63,2.67-.33.55-.24-1.73-.24-1.16-.45C305.42,188.84,304.68,188.7,305.33,189.37Z"/><path class="cls-1" d="M306.84,188.59c.22,0,.46-.09.72-.16A4.93,4.93,0,0,0,306.84,188.59Z"/><polygon class="cls-1" points="10.38 184.22 8.87 184 9.84 184.35 10.38 184.22"/><path class="cls-1" d="M7.48,185l-.35-.65-.91.59A3.08,3.08,0,0,1,7.48,185Z"/><path class="cls-1" d="M213.41,190.16l.11-.15c-.23-.17-.58-.19-1.29-.21Z"/><polygon class="cls-1" points="192.97 189.68 193.32 189.69 192.66 189.1 192.97 189.68"/><path class="cls-1" d="M175.82,190.43c.7,0,1.52-.11,2.22-.09C176.52,190.45,175.63,189.69,175.82,190.43Z"/><text class="cls-2" transform="translate(145.05 48.89) scale(0.8 1)">E<tspan class="cls-3" x="25.75" y="0">v</tspan><tspan class="cls-4" x="44.15" y="0">ent name</tspan></text><text class="cls-5" transform="translate(95.67 78.52) scale(0.8 1)">Date______________Location____________</text><text class="cls-5" transform="translate(78.22 129.19) scale(0.8 1)"><tspan xml:space="preserve"> # Guests </tspan><tspan x="0" y="21.6" xml:space="preserve"> # Status</tspan><tspan x="0" y="43.2"> </tspan></text><text class="cls-5" transform="translate(249.78 127.41) scale(0.8 1)"># Menu<tspan x="0" y="21.6">#</tspan><tspan class="cls-6" x="12.02" y="21.6"> </tspan><tspan class="cls-7" x="15.19" y="21.6">T</tspan><tspan x="22.55" y="21.6">ime left</tspan></text><path class="cls-8" d="M128.37,185.77c-.47,0-.3.38-.37.45C128.78,186.13,128.35,185.66,128.37,185.77Z"/><polygon class="cls-8" points="136.08 184.81 135.95 184.98 137.08 184.56 136.08 184.81"/><path class="cls-8" d="M143.3,184.81c-.69-.71-2.62.12-3.9-.13l-.21-.17-.58.58A28,28,0,0,1,143.3,184.81Z"/><path class="cls-8" d="M147.14,186.35c-.24-.27.83-.24-.89-.08l.16.07A6.25,6.25,0,0,1,147.14,186.35Z"/><path class="cls-8" d="M146.41,186.34c-.76,0,.49.23,0,0Z"/><path class="cls-8" d="M149.92,186.18l-1,.25c.21.16,1.1.2.77.32C150.71,186.61,150.5,186.45,149.92,186.18Z"/><path class="cls-8" d="M150.86,185.66l-.52.1C150.44,185.83,150.57,185.85,150.86,185.66Z"/><path class="cls-8" d="M149.25,186l1.09-.22c-.14-.11-.16-.35-.5.08C149.93,185.63,149.71,185.83,149.25,186Z"/><path class="cls-8" d="M148.62,185.87c-.56-.15-1.28-.25-.28-.5C146.43,185.47,146.71,186,148.62,185.87Z"/><path class="cls-8" d="M143.66,184.07l-.75-.2-.65.24C142.59,184,143.71,184.3,143.66,184.07Z"/><path class="cls-8" d="M156.15,186.54c.06-.15-.34-.4-.41-.6l-.74.18C155.38,186.22,156.1,186.32,156.15,186.54Z"/><path class="cls-8" d="M155.74,185.94l1.1-.26C155.85,185.65,155.67,185.78,155.74,185.94Z"/><polygon class="cls-8" points="151.04 184.86 149.22 185.41 151.39 184.85 151.04 184.86"/><polygon class="cls-8" points="160.37 186.56 159.74 186.91 160.86 186.38 160.37 186.56"/><path class="cls-8" d="M163.17,186.5c-.46.29.64.49.15.67a7.06,7.06,0,0,0,2-.53A4.62,4.62,0,0,1,163.17,186.5Z"/><path class="cls-8" d="M166.29,186.31a8.08,8.08,0,0,0-1,.33A4,4,0,0,0,166.29,186.31Z"/><path class="cls-8" d="M158.72,185.76a1.29,1.29,0,0,0,.88.43l-.44-.43Z"/><path class="cls-8" d="M159.14,185.75h0l.94,0Z"/><path class="cls-8" d="M158.62,185.75h.1S158.66,185.7,158.62,185.75Z"/><path class="cls-8" d="M153.94,185.25c.65-.24,2-.5.69-.86C154.17,184.68,154.92,184.89,153.94,185.25Z"/><path class="cls-8" d="M158.07,185.22l-1.17-.1c0,.12.24.28-.09.4Z"/><polygon class="cls-8" points="158.65 185.08 158.07 185.22 158.51 185.26 158.65 185.08"/><path class="cls-8" d="M164.28,185.91a5.9,5.9,0,0,1,1.69-.23,17.43,17.43,0,0,0-2-.13C163.85,185.69,163.56,185.93,164.28,185.91Z"/><path class="cls-8" d="M161.79,185.79l.11,0C161.83,185.73,161.77,185.72,161.79,185.79Z"/><path class="cls-8" d="M172.14,185.68l-.1-.08a.14.14,0,0,1,0,.07Z"/><path class="cls-8" d="M163.83,185.47a1.72,1.72,0,0,0-1.09.16,11.33,11.33,0,0,1,1.2-.08C164,185.49,164,185.45,163.83,185.47Z"/><path class="cls-8" d="M168,186.11c-.27-.09-.57-.16-.88-.23C167.4,186,167.92,186.22,168,186.11Z"/><path class="cls-8" d="M162.07,185.89l-.08,0C162.16,186,162.14,186,162.07,185.89Z"/><path class="cls-8" d="M162.07,185.89a3.74,3.74,0,0,0,.67-.26,6.12,6.12,0,0,0-.84.14A1,1,0,0,1,162.07,185.89Z"/><path class="cls-8" d="M174,182.93c-.09.4-1.42.77-2.56.34-1.13.3-.39,1.6.59,2.33,0-.17,0-.33,1.2-.57-.41-.21-2.58-.5-1.6-.86,1.54-.2,1.26.14,2,.35-.64-.49,1.95-.72,1.62-1.45l-1.35.26C173.9,183.22,174.38,183,174,182.93Z"/><path class="cls-8" d="M169.83,185.56l-.48.05a5.76,5.76,0,0,1,1.66.54c.79-.2,1-.34,1-.48l-2.35,0Z"/><path class="cls-8" d="M167.21,185.61c.37-.43,1.52-.61.82-1.08-1.4,0-1,.36-1.82.55,2.26-.11-.65.24,1,.48a9.3,9.3,0,0,1-1.22.12c.41,0,.8.12,1.17.2l0,0h0c-.1-.05-.13-.08,0-.05h.05a.39.39,0,0,1,.1-.16c.66.09.1.11-.1.16,0,0,0,0,0,.06h0l2.26-.24A13.33,13.33,0,0,0,167.21,185.61Z"/><path class="cls-8" d="M155.84,183.46c.07,0,.07.07.07.1C156.06,183.51,156.11,183.47,155.84,183.46Z"/><path class="cls-8" d="M156.77,183.72a1.26,1.26,0,0,1-.83.19c-.47-.13,0-.21,0-.35-.32.11-1.13.31-.11.52L156,184c.91.15,2.08.68,1.92.74A3.31,3.31,0,0,0,156.77,183.72Z"/><path class="cls-8" d="M162.06,184.56l1.88-.22-1-.37.05.23C162,184.11,162.19,184.38,162.06,184.56Z"/><polygon class="cls-8" points="172.36 185.89 172.11 186.35 173.2 185.71 172.36 185.89"/><polygon class="cls-8" points="174.81 185.84 174.72 186.23 175.37 185.99 174.81 185.84"/><path class="cls-8" d="M313.15,180.84l.55-.12A3.43,3.43,0,0,0,313.15,180.84Z"/><path class="cls-8" d="M309.13,180.81l-.1.2C309.22,180.9,309.3,180.82,309.13,180.81Z"/><path class="cls-8" d="M235,185.75c.81.37,1.71.94,1.61.5l-.25-.43A3.43,3.43,0,0,1,235,185.75Z"/><path class="cls-8" d="M276.25,183.14,276,183l-.54.42Z"/><path class="cls-8" d="M276.82,181.34l1.06.28A5.52,5.52,0,0,0,276.82,181.34Z"/><path class="cls-8" d="M335.06,180.36l.65-.44C334.7,179.92,335.14,180.14,335.06,180.36Z"/><path class="cls-8" d="M199.92,185.66a8.63,8.63,0,0,0,1.74.26C200.82,185.67,200.14,185.3,199.92,185.66Z"/><path class="cls-8" d="M311.57,185.44c.34-.08.48-.17.47-.26C311.69,185.25,311.5,185.33,311.57,185.44Z"/><path class="cls-8" d="M203.67,185.92a2.54,2.54,0,0,0-.37-.1,8.45,8.45,0,0,1-1.64.1A2.84,2.84,0,0,0,203.67,185.92Z"/><path class="cls-8" d="M414.55,180.67l.18.05C414.75,180.66,414.67,180.66,414.55,180.67Z"/><path class="cls-8" d="M437.71,185c-.23,0-.6,0-.95,0A3.7,3.7,0,0,0,437.71,185Z"/><path class="cls-8" d="M184.67,186c-.52,0-.08,0,0,0Z"/><path class="cls-8" d="M182.14,184.31c.11-.05.2-.12.21-.22A.35.35,0,0,1,182.14,184.31Z"/><path class="cls-8" d="M208.85,183.21h0C208.74,183.13,208.76,183.15,208.85,183.21Z"/><path class="cls-8" d="M183.89,185.82a4,4,0,0,0,.67.13Z"/><path class="cls-8" d="M184,186l-.46,0C183.48,186.06,183.53,186.1,184,186Z"/><path class="cls-8" d="M185.4,186a7.3,7.3,0,0,1-.84-.05c.1,0,.14.05.11.07Z"/><path class="cls-8" d="M372,181.86l.11,0C372.6,181.72,372.37,181.75,372,181.86Z"/><path class="cls-8" d="M248.55,181.24l-.06,0h.07Z"/><path class="cls-8" d="M250.41,180.91a2,2,0,0,1-1.85.36l.62,1.26Z"/><path class="cls-8" d="M322.75,180.7l-1.31-.38c1.59-.65,2.73-.43,1.5-1-.19,1.35-5.1.14-5.28,1.5l-.86-.29c.24,0,.28-.07.53-.05-1.68-.65-1.25,1-3.42.79-.75-.11-1.28-.3-.76-.46l-1.69.33c-.49,0-.37-.26.12-.23l-2.56.11v0a12,12,0,0,1-1.6.68c-.65-.19.33-.14.16-.31l-1.42.33c-.58-.35.6-.7,1.58-.65-1.32-1.35-1.17.35-4-.44l1.34-.18c-.86-.77-1.91-.49-3.43-1,.36.25,3,1.21,1.5,1.55a3.27,3.27,0,0,0-1.84.12c0-.48-.82-.36-1.84-.33l.07-.64c-1.1.18-1,.51-1.66.8a1.82,1.82,0,0,1-1.76-1c-2-.1,1.35.8-1,.92a12.57,12.57,0,0,0-4.73.4c-1.14-.22.2-.39-.21-.57l-1,.51c-.25,0-.17-.17-.13-.25-.85.2-.07.64-1.41.81-.36.71-2.75-1-4.41-.22-.41-.18.2-.4.08-.64a17.63,17.63,0,0,0-3.82,1.09l-1.6-.42c1.17.48-.32,1-1.63,1.52.42.23.77.43,1,.53l-2.09.34c-.25-.1,0-.32.3-.59a3.77,3.77,0,0,0-.38.15c-.75-.23-.36-.6.17-1l.75.39c.52-.39,1-.82.89-1.19a2.07,2.07,0,0,1-.68.17c.13-.1.22-.2.16-.26s-.29.07-.63.24l-.48-.72-.11.29-2.74-.45c-1.95.72-3.65,1.78-6.76,2.08.77-.53.17-.86.21-1.48.85.66,2.4-.28,4-.15-.84-.06-.65-.36-.44-.46l-2.87.6c.07-.51-.61-.38-1.36-.59.57,1-2.14.67-3.3,1-.08-.33.2-.68,1.63-.6-1.57-.75-2,1.18-3.57.54.34,0,.53,0,.67-.13-.81.3-2.8.07-2.33-.23h.34c-2.31-.12-7,0-7.37.85a4.21,4.21,0,0,1,.44-1.2l-4.12,2.86c.37-.73-1-2.47.89-2.88a5.28,5.28,0,0,0-2.39,0c.37.11.93,1.06.42,1.13a11.82,11.82,0,0,0-2.71-1.13c.56.16-.06,1.3-.95,1.27.14-.18-.07-1.14.25-1.25l-2.21,1.12c.55-.2.1-1-.4-1.27.23.22-1.91,0-2.5.09l.94.26c-2.5-.17-2.47,1.59-4.94,1.53.3-.23.74-1.43-.52-1.57-.58.57-2.56,2.77-4.75,3.21l-.42-.32-1.68.37a33.37,33.37,0,0,1,5.59-3.4c-.94-.26-.26-.39-1.66-.36-.5-.31.76-.47,1.17-.49l-3.26-.19c.15.67-2.49.67-2.36,1.23l3.53-.7c.15.67-2,1.91-4.35,1.8-.59-.27.44-1.2.39-1.42a5.08,5.08,0,0,1-2.4.27l1-.36c-1.29-.25-2.1.9-3.64.26-.54-.05-1.59-.87-1.69-.47.87.77,1,3.14.47,3.72a25.77,25.77,0,0,1-3.41-1.11c-.88-.61,1.31-1.44.57-1.95,0,.18-.52.41-.72.48-.56-.16.23-.57-1-.49-.2.69-2.47-.05-.57.58-1.19.2-1.27-.14-2.66-.11.44.44-1.26,1.5-2.45,1.7.07-.18-.19-.4-.32-.51-2.44-.06-3.75-.36-6-.37-.21-.16-1.3-.36-.84-.66a3,3,0,0,1-1.33.37c-1.35-.59,1.57-.09.53-.8-.08.4-1.81.55-2.81.8.31.61,2.31.11,3.31-.13,0,.84-1.74,1.73-4.11,2.12-1.89.21-.82-.55-1.15-.43-3.55-.14-3,1.48-6,.87-1.17-.54,0-1.07-.31-1.46,1.54-.2,2.36.34,3.4.32l-1.28-.25a4.28,4.28,0,0,1,2.08-.16c-1-.48-6-.09-8.74-.54-.48.19-1.32.37-.92.59l.86-.08c.8.44-1.63.6-.53.81a9.59,9.59,0,0,1-4.1.54l-.31-.62c0,.18,1.07.37,1.53.18-.68.27-2.51-.83-3.25,0l1.14.42a10.53,10.53,0,0,1-4.06.77c.67.6.34-.07,1.37.64-.89-.88,3.71,0,2.27-.89,1.06.82,1.83.34,3.21,1,0-.2-.49-.38.73-.28a1.27,1.27,0,0,1,.27-.18h.08l-.07,0c.06,0,.06,0,0,0a1.36,1.36,0,0,1-.62-.31c.6-.46,2.54-.45,3.19-.69.72.1-.3.23.09.45l1-.36c.1.45,1.92.74.22,1l1.53,0a6.62,6.62,0,0,0,2.91.16c.72.09,1.82-.5,1.19-.15l2.4-.28,0,.11c2.37.06,4.88-.74,7.59.07a10.56,10.56,0,0,1,3-.13l.26.39c1-.14,3.07.39,3.51,0,1.11,1,5,.22,6.77.41l.07-.51a25.72,25.72,0,0,0,4-.32l-.1-.45c1.33-.37,3.41.32,5.51.27-.14.17-.67.13-1.05,0,2.51,1,5.29-.75,7.56,0a2.29,2.29,0,0,1,1.38,0,.32.32,0,0,0-.14,0,1.75,1.75,0,0,0,.23,0c.25.08.51.17.79.24a3.37,3.37,0,0,0-.66-.24,11.66,11.66,0,0,0,1.74-.18l.28.49.15,0c.64.18.51-.23.17-.59a3.93,3.93,0,0,0,.86-.29c.52.78,1.71-.26,2.41.57.44-.41,3.27-.31,3.62-1.16,0,.11.21.16-.14.17a4.37,4.37,0,0,0,2.1-.05l.3.61,1.58-.82c1,.37,1.36.59.41,1.06,2.3-.73,1.87-.27,3.83-1l-.1.39c.7,0,1.82-.54,2.24-.22,1.57.75,7.75.1,11.78.8-.79-1.17,1.86.52,2-.38.24.27.8.43.15.67,2.05-.27,3.08.43,4.5-.33.23.28-.44.4-.23.57.16-.06.65-.24.86-.08s-.3.23-.62.35c2.09,0,2.3-.89,2.46-1.69a2.19,2.19,0,0,0,2.36-.2c.37.26,1,.53-.32.63.73,0,4.48.38,4.55-.26a2.19,2.19,0,0,0,1.22,0c1.64,0,1.79.09,3.4,0l-.45-.1c.64-.77,1.35-.17,2.65-.27l0,.08c3,.56,1.29-.27,4.23.37l-.16-.48c.28-1,2.61.6,4.32.21l-.62-.28c.94-.35,2.61,1.41,3.55,1.53.2.09-.32.15-.61.22,2.46.6.32-.63,2.15-.78.33.34-.44.86.79.92.62.28,3.57-1.1,5.25-.45-.37-.26-.74-.52.11-.72,1.31-.09,3.52,1,4.7.16.16.07.23.14.23.21,1-.22,3.24-.36,3.84-.8.92,1.65,6.18-.81,6.16.71l3.06-.08-.08.16a5.29,5.29,0,0,0,3.34-.64c.45.11.12.25.08.33a9.57,9.57,0,0,0,5.54-.52l.25.49c.65-.29,4.13.78,6.94.2a.48.48,0,0,1-.31.22c3.15-.58,7.55,1.37,8.71-.44l2.08-.44c-2.69-.14.4-.79-.71-1.09,1.06-.1,2.74.55,1.44.64l-.21-.09c-.47.94,3.35.33,3.28,1,5.3-.05,10.46.47,15.43.51l-.57-.73,1.73,0c.45.17.61.57-.63.54.65.41,2.07-.35,2.11-.51,2.42.3-.94.86-.2.87l1-.05-.22-.09a4.1,4.1,0,0,1,2.37-.58c.94.15.48.45.85.48,0,.05.13.08.57,0l2.18.06-.87-.58c1-.28,2.05,0,1-.62,1.48,1,8.14.36,9.05.67a12.91,12.91,0,0,1,4.35-.37c-.42-.12-.66-.77.77-.69-.53,1.34,2.61.58,3.77,1.55-1-.64,4.06-.16,2.44-1.07,1.19.11.07.5,1,.81,2.84-.52,6.26.34,9.76.16.06-.18-.53-.44.22-.71l1.85.88c.69-.08.64-1,1.9-.4-.17-.15-.44-.37,0-.43,6.87.85,14-.71,21,.89-.95-.34-.32-.37.4-.38-.47-.09,0-.44-.08-.68l2.92.66c.53-.66,3.13,0,3.44-.68l-.93.12c1.23-.75-1.72-1.66-1.54-2.62-1.38.85-3.63-1.25-5.89,0-.5-.19.42-.3.16-.53a3.3,3.3,0,0,1-2.55.32l.14-.1c-3.6.1-5.14-.31-9.19-.57l.3.47a4.55,4.55,0,0,1-1.46-.33c-1,.72,2.45,0,1.54.83-1.16-1-6.13,0-6.91-1.1-1.34,0,.39.54-.95.54l-.35-.3-.34.39c-.88-.07-1.32-.44-1.35-.69a4.89,4.89,0,0,0,.83-.09c-1.14-.35-3.2.12-3.59,0l1.28.18c-3.65.28-8.1-.11-11.63.5l.27.22c-2.69.42-2.16-.24-5.12-.05l.11-.05a6.1,6.1,0,0,1-2.19.31c.75-.26-1.4-.51-.42-.8-2.92.45-1.45.35-3.38,1.18l-.44-.37a3.69,3.69,0,0,1-2.19.61c1.21-.32-.94-.56.41-1-3.09-.8-4.6.83-6-.36-1.42,1,2.68.57,1.89.79.66.33-1.18.77-2.15.66s-1.68-1.31-4.17-1.29c.25,0,.26-.07.51-.06-.93-.27-1.83.35-3-.07-.64.62-1.48,0-1.67.75l2.29-.18c-1.3.21-2.51,1.13-4.64.69a4.21,4.21,0,0,1,1.23-.49c-.62-.23-1.2.15-1.85-.09.19-.79,2.78-.17,4.17-.77-.67-.34-2.63.57-1.93-.29-1,1.09-2.45-.13-4.14.7l.11-.47a4.36,4.36,0,0,1-1.31.28l.89-.61c-1.36.52-2.63-.46-3.94-.17,2.74,0,.62.57,1.77.91-3.38.64-1.94-1.24-5.73-1,.52-.06,1.93.29,1.13.51a7.45,7.45,0,0,1-2.12-.53c-2.51.1.39.49-.68.78-.85-.58-1.23.24-2.33.42V181c-2.86-.31-.76,1-3.33.63l1.09-.67-1.34.18.27-.55a6.78,6.78,0,0,1-3.34.15c.33.34-.19.87-1.45.89-.87-.29.48-.46-1.31-.39a1.28,1.28,0,0,1,1.63-.24c.08-.15.4-.3.48-.45a9,9,0,0,0-3-.07,2.23,2.23,0,0,1,.7.11l-2.6.67c-.41-.18-.08-.33.24-.47-.53,0-.89.27-1.67.32.21-.4.16-.8,1.25-1l-2.47.44c-.17-.17-1.28-.47-1-.61-1.37-.23-3.37.76-5.19.46a1.43,1.43,0,0,1-.67.2c-1.71-.08-3.23-.56-5.26,0l-1.15-.71c-1.59.16,1.56.89-1.08,1.15-1.88.23-.7-.59-1.36-.79a6.17,6.17,0,0,1-4.27.51A10.24,10.24,0,0,1,322.75,180.7Zm-19.59.33c.38-.1,1.13-.42,1.41-.13C304.14,181.45,303.8,181.19,303.16,181Zm-29.8,1.18a1.58,1.58,0,0,1,1.22.1A3.3,3.3,0,0,1,273.36,182.21Zm-83,3.41,0,0C191.26,185.79,191,185.71,190.37,185.62Zm-1.76-.21c-.17.07-.16.14-.09.21.13-.13.52-.13,1-.1C189.37,185.39,189.14,185.31,188.61,185.41Zm188.91-.31-.34-.12C378,184.84,377.73,185,377.52,185.1Z"/><path class="cls-8" d="M276.74,181.55a.39.39,0,0,1,.16.26C277.05,181.73,277.06,181.63,276.74,181.55Z"/><path class="cls-8" d="M334.94,180.44H335a.16.16,0,0,0,.06-.09Z"/><path class="cls-8" d="M215.86,181.31a1.75,1.75,0,0,1,.7.25C216.58,181.44,216.41,181.34,215.86,181.31Z"/><path class="cls-8" d="M179.29,186.24l1.13-.13a2.5,2.5,0,0,1-1-.15C179.43,186.07,179.64,186.23,179.29,186.24Z"/><path class="cls-8" d="M169.51,183.26c-.16.06-.35,0-.51.07l0,.22C169.74,183.54,170.24,183.36,169.51,183.26Z"/><path class="cls-8" d="M178.25,184.64c-.09-.41-.8-.27-1.59-.19h.14C176.57,185,177.41,184.83,178.25,184.64Z"/><path class="cls-8" d="M176.48,184.46a4.45,4.45,0,0,1-.73,0C175.66,184.7,176.05,184.52,176.48,184.46Z"/><path class="cls-8" d="M186.38,185.69c-.37-.11-.23.51-.44.35C185.52,186.56,188.43,185.41,186.38,185.69Z"/><polygon class="cls-8" points="177.61 183.3 177.89 183.8 178.33 183.4 177.61 183.3"/><path class="cls-8" d="M183.84,183.67l-1.26-.14c0,.08-.14.13-.34.17C183,183.71,183.87,183.81,183.84,183.67Z"/><path class="cls-8" d="M182.24,183.7a3.26,3.26,0,0,0-1,.08A6.65,6.65,0,0,0,182.24,183.7Z"/><polygon class="cls-8" points="179.33 183.15 179.71 183.25 180.59 183.29 179.33 183.15"/><path class="cls-8" d="M197.4,183.75l1.37-.14c.14-.17-.23-.28-.74-.21C197.7,183.52,197.19,183.59,197.4,183.75Z"/><path class="cls-8" d="M193.23,182.38a1.31,1.31,0,0,1,.61.38l0-.62Z"/><path class="cls-8" d="M197.25,182.24c.13-.18,2-.5.25-.46C197.36,182,196,182.1,197.25,182.24Z"/><polygon class="cls-8" points="217.99 183.01 217.64 183.02 217.69 184.03 217.99 183.01"/><path class="cls-8" d="M236.27,180.56c-1.64-.24-.39.63-1.86.32-.39.25,1.2.25.81.46C236.2,181.09,236.72,181.23,236.27,180.56Z"/><path class="cls-8" d="M235.22,181.34a4.2,4.2,0,0,0-.51.16A2.82,2.82,0,0,0,235.22,181.34Z"/><polygon class="cls-8" points="441.56 185.58 442.6 185.79 441.93 185.45 441.56 185.58"/><path class="cls-8" d="M443.57,184.82l.25.65.62-.59C444.21,184.91,443.75,185,443.57,184.82Z"/><path class="cls-8" d="M300.24,179.72l-.08.16c.16.17.41.18.9.21Z"/><polygon class="cls-8" points="314.47 180.2 314.22 180.19 314.68 180.77 314.47 180.2"/><path class="cls-8" d="M326.41,179.44c-.49,0-1.06.11-1.55.09C325.92,179.42,326.54,180.18,326.41,179.44Z"/><path class="cls-8" d="M45.7,9.77c-.59-.06-.39.37-.49.44C46.2,10.15,45.68,9.66,45.7,9.77Z"/><polygon class="cls-8" points="55.46 9.17 55.28 9.34 56.73 8.97 55.46 9.17"/><path class="cls-8" d="M64.55,9.51c-.83-.75-3.3,0-4.91-.32L59.38,9l-.75.55A44.05,44.05,0,0,1,64.55,9.51Z"/><path class="cls-8" d="M69.35,11.23c-.29-.29,1.05-.2-1.13-.13a.81.81,0,0,1,.2.08C68.62,11.18,68.89,11.19,69.35,11.23Z"/><path class="cls-8" d="M68.42,11.18c-1,0,.62.25,0,0Z"/><path class="cls-8" d="M72.85,11.17l-1.27.2c.26.18,1.38.25,1,.36C73.84,11.63,73.58,11.46,72.85,11.17Z"/><path class="cls-8" d="M74.06,10.68l-.65.09C73.52,10.84,73.69,10.87,74.06,10.68Z"/><path class="cls-8" d="M72,11l1.4-.18c-.18-.12-.2-.35-.64.06C72.89,10.62,72.61,10.81,72,11Z"/><path class="cls-8" d="M71.23,10.81c-.7-.18-1.61-.3-.34-.51C68.47,10.32,68.81,10.83,71.23,10.81Z"/><path class="cls-8" d="M65,8.79l-.94-.24-.83.2C63.69,8.65,65.09,9,65,8.79Z"/><path class="cls-8" d="M80.7,11.78c.08-.15-.41-.41-.5-.61l-.94.14C79.74,11.43,80.64,11.56,80.7,11.78Z"/><path class="cls-8" d="M80.2,11.17,81.6,11C80.36,10.88,80.12,11,80.2,11.17Z"/><polygon class="cls-8" points="74.31 9.9 72 10.37 74.75 9.9 74.31 9.9"/><polygon class="cls-8" points="86.02 11.97 85.22 12.3 86.65 11.81 86.02 11.97"/><path class="cls-8" d="M89.56,12c-.6.27.79.52.16.68a10.21,10.21,0,0,0,2.53-.45A7.07,7.07,0,0,1,89.56,12Z"/><path class="cls-8" d="M93.5,12a12.21,12.21,0,0,0-1.25.29A5.53,5.53,0,0,0,93.5,12Z"/><path class="cls-8" d="M84,11.1a1.73,1.73,0,0,0,1.09.47l-.54-.44Z"/><path class="cls-8" d="M84.5,11.11l0,0,1.19.06Z"/><path class="cls-8" d="M83.84,11.1H84S83.89,11,83.84,11.1Z"/><path class="cls-8" d="M78,10.4c.82-.21,2.54-.41.9-.83C78.26,9.84,79.2,10.08,78,10.4Z"/><path class="cls-8" d="M83.17,10.54l-1.48-.14c0,.11.29.28-.12.39Z"/><polygon class="cls-8" points="83.9 10.43 83.17 10.54 83.72 10.59 83.9 10.43"/><path class="cls-8" d="M91,11.48a8.92,8.92,0,0,1,2.13-.16c-.84-.11-1.71-.18-2.55-.21C90.44,11.24,90.07,11.47,91,11.48Z"/><path class="cls-8" d="M87.83,11.27l.15,0C87.89,11.21,87.82,11.19,87.83,11.27Z"/><polygon class="cls-8" points="100.9 11.54 100.78 11.46 100.74 11.53 100.9 11.54"/><path class="cls-8" d="M90.42,11a2.56,2.56,0,0,0-1.38.11c.48,0,1,0,1.52,0C90.62,11.05,90.63,11,90.42,11Z"/><path class="cls-8" d="M95.68,11.83c-.33-.1-.7-.18-1.1-.27C94.9,11.71,95.56,11.94,95.68,11.83Z"/><path class="cls-8" d="M88.19,11.37l-.1,0C88.3,11.48,88.27,11.44,88.19,11.37Z"/><path class="cls-8" d="M88.19,11.37a5.47,5.47,0,0,0,.85-.23,7.87,7.87,0,0,0-1.06.11Z"/><path class="cls-8" d="M103.33,8.86c-.12.4-1.81.72-3.24.25-1.43.26-.54,1.59.69,2.35,0-.17,0-.33,1.52-.53-.51-.23-3.23-.59-2-.91,2-.16,1.59.18,2.52.41-.79-.51,2.49-.65,2.09-1.38l-1.71.21C103.18,9.14,103.8,9,103.33,8.86Z"/><path class="cls-8" d="M98,11.34l-.61,0a8.74,8.74,0,0,1,2.07.59c1-.17,1.22-.31,1.29-.44l-3-.13Z"/><path class="cls-8" d="M94.68,11.3c.48-.41,1.93-.56,1.06-1.05-1.77,0-1.25.33-2.31.48,2.86,0-.82.21,1.23.52a14.23,14.23,0,0,1-1.55.07q.78.11,1.47.24l-.06,0h0c-.12-.06-.16-.09,0-.06h.06a.38.38,0,0,1,.13-.16c.82.11.13.11-.13.16,0,0,0,0,0,.06h0l2.86-.15A22.89,22.89,0,0,0,94.68,11.3Z"/><path class="cls-8" d="M80.41,8.69c.09,0,.08.07.09.1C80.69,8.75,80.76,8.71,80.41,8.69Z"/><path class="cls-8" d="M81.58,9a1.93,1.93,0,0,1-1.06.15c-.59-.14,0-.2,0-.35-.41.11-1.43.27-.17.52l.21-.05a5.79,5.79,0,0,1,2.4.82A3.74,3.74,0,0,0,81.58,9Z"/><path class="cls-8" d="M88.21,10,90.6,9.9l-1.2-.41,0,.23C88.1,9.59,88.39,9.87,88.21,10Z"/><polygon class="cls-8" points="101.16 11.76 100.84 12.21 102.23 11.6 101.16 11.76"/><polygon class="cls-8" points="104.26 11.79 104.13 12.18 104.96 11.97 104.26 11.79"/><path class="cls-8" d="M278.78,8.84l.69-.11A5.54,5.54,0,0,0,278.78,8.84Z"/><path class="cls-8" d="M273.72,8.85l-.13.19C273.83,8.93,273.92,8.85,273.72,8.85Z"/><path class="cls-8" d="M180.21,13.3c1,.38,2.15,1,2,.52l-.31-.43A5.71,5.71,0,0,1,180.21,13.3Z"/><path class="cls-8" d="M232.25,11.15,232,11l-.68.41Z"/><path class="cls-8" d="M233,9.36l1.34.28A8.32,8.32,0,0,0,233,9.36Z"/><path class="cls-8" d="M306.4,8.17l.81-.45C305.94,7.74,306.5,8,306.4,8.17Z"/><path class="cls-8" d="M135.93,12.41a13.42,13.42,0,0,0,2.19.31C137.07,12.45,136.22,12.06,135.93,12.41Z"/><path class="cls-8" d="M276.81,13.46c.42-.08.61-.17.59-.27C277,13.27,276.71,13.35,276.81,13.46Z"/><path class="cls-8" d="M140.66,12.78c-.15,0-.31-.08-.46-.12a12.65,12.65,0,0,1-2.08.06A4.55,4.55,0,0,0,140.66,12.78Z"/><path class="cls-8" d="M406.59,6.57l.23,0C406.84,6.56,406.74,6.56,406.59,6.57Z"/><path class="cls-8" d="M435.92,10c-.29,0-.75.05-1.2.07A5.91,5.91,0,0,0,435.92,10Z"/><path class="cls-8" d="M116.7,12.32c-.66,0-.11,0,0,0Z"/><path class="cls-8" d="M113.55,10.51c.14,0,.25-.1.27-.2A.43.43,0,0,1,113.55,10.51Z"/><path class="cls-8" d="M147.25,10.21h.05C147.11,10.13,147.14,10.14,147.25,10.21Z"/><path class="cls-8" d="M115.71,12.09a8,8,0,0,0,.84.15C116.41,12.21,116.16,12.16,115.71,12.09Z"/><path class="cls-8" d="M115.84,12.3l-.57-.06C115.18,12.31,115.26,12.36,115.84,12.3Z"/><path class="cls-8" d="M117.61,12.32c-.38,0-.73,0-1.06-.08.13,0,.18.06.15.08Z"/><path class="cls-8" d="M352.94,9l.14,0C353.74,8.86,353.45,8.9,352.94,9Z"/><path class="cls-8" d="M197.33,9l-.07,0,.1,0Z"/><path class="cls-8" d="M199.69,8.7a3.13,3.13,0,0,1-2.33.34l.76,1.26Z"/><path class="cls-8" d="M290.89,8.65l-1.66-.38c2-.65,3.44-.44,1.88-1-.22,1.36-6.42.18-6.64,1.54l-1.09-.28c.31,0,.36-.07.67-.06-2.13-.64-1.57,1-4.3.81-1-.1-1.62-.29-1-.46l-2.12.35c-.62,0-.47-.26.14-.23l-3.23.12,0,0a18.31,18.31,0,0,1-2,.7c-.82-.19.41-.15.2-.32L270,9.76c-.73-.35.75-.7,2-.65-1.68-1.35-1.49.35-5.1-.44l1.69-.17c-1.09-.77-2.41-.49-4.32-1,.45.25,3.83,1.21,1.89,1.55a5.16,5.16,0,0,0-2.32.12c0-.48-1-.36-2.32-.33l.09-.64c-1.39.18-1.28.51-2.09.8a2.42,2.42,0,0,1-2.23-1c-2.47-.09,1.71.8-1.22.92a19.86,19.86,0,0,0-6,.41c-1.44-.22.25-.4-.26-.58l-1.28.51c-.31,0-.21-.17-.16-.24-1.07.19-.09.64-1.78.81-.45.71-3.47-1-5.56-.24-.51-.18.25-.39.09-.64a27.37,27.37,0,0,0-4.82,1.07l-2-.43c1.47.49-.41,1-2.07,1.51.52.24,1,.44,1.27.54l-2.64.33c-.31-.1,0-.32.39-.59l-.49.15c-.94-.24-.45-.6.23-1l.94.4c.66-.39,1.27-.82,1.13-1.19a3.79,3.79,0,0,1-.86.17c.17-.11.28-.2.2-.26s-.36.07-.8.23L231,9.26l-.15.28-3.44-.46c-2.47.71-4.62,1.76-8.54,2,1-.51.21-.85.27-1.47,1.07.67,3-.26,5.06-.12-1.06-.08-.82-.37-.55-.47l-3.62.58c.08-.5-.77-.38-1.71-.6.7,1-2.7.64-4.18.94-.09-.34.27-.68,2.06-.58-2-.77-2.57,1.15-4.51.49.44,0,.68,0,.85-.12-1,.29-3.53,0-2.93-.25h.43c-2.91-.15-8.86-.08-9.3.76a3.56,3.56,0,0,1,.57-1.19l-5.23,2.82c.47-.73-1.27-2.48,1.15-2.88a8.44,8.44,0,0,0-3,0c.47.11,1.16,1.07.52,1.13A17.52,17.52,0,0,0,191.36,9c.71.16-.09,1.3-1.21,1.25.18-.17-.08-1.14.33-1.25l-2.8,1.09c.7-.2.13-.95-.49-1.28.29.23-2.41-.05-3.15,0l1.18.28c-3.15-.21-3.13,1.54-6.26,1.44.39-.23,1-1.42-.63-1.58-.73.57-3.26,2.73-6,3.14l-.53-.34-2.12.35a45,45,0,0,1,7.1-3.31c-1.18-.28-.33-.39-2.09-.39-.62-.31,1-.45,1.49-.46L172,7.72c.18.68-3.15.64-3,1.19l4.47-.63c.17.67-2.61,1.88-5.51,1.71-.74-.28.57-1.19.51-1.41a8.15,8.15,0,0,1-3,.22l1.24-.34c-1.62-.28-2.66.85-4.6.17-.67-.05-2-.9-2.11-.5,1.08.78,1.26,3.16.52,3.72a34.35,34.35,0,0,1-4.28-1.18c-1.1-.62,1.68-1.41.75-1.94,0,.18-.66.4-.91.47-.71-.17.3-.57-1.24-.51-.26.68-3.11-.11-.73.56-1.5.17-1.59-.17-3.35-.17.55.45-1.61,1.47-3.12,1.64.09-.17-.24-.4-.4-.51-3.08-.11-4.72-.47-7.59-.53-.26-.17-1.64-.41-1-.69a4.58,4.58,0,0,1-1.69.34c-1.69-.63,2-.05.69-.79-.12.39-2.3.5-3.57.72.38.62,2.91.18,4.18,0,0,.84-2.23,1.68-5.23,2-2.39.16-1-.57-1.44-.46-4.47-.24-3.85,1.39-7.55.7-1.46-.57,0-1.07-.36-1.47,1.95-.16,3,.41,4.29.42l-1.61-.29A6.75,6.75,0,0,1,129,10c-1.23-.52-7.56-.25-11-.8-.62.17-1.68.33-1.18.56l1.09,0c1,.46-2.07.54-.69.78a14.77,14.77,0,0,1-5.19.4l-.37-.62a3,3,0,0,0,1.92.23c-.86.25-3.14-.91-4.1-.14l1.43.47c-1.47.26-3.31.87-5.13.62.81.63.42-.05,1.7.69-1.1-.91,4.68.16,2.89-.81,1.31.85,2.3.41,4,1.16,0-.21-.6-.41.93-.27a3.58,3.58,0,0,1,.34-.17l.1,0-.08,0c.07,0,.07,0,0,0a2.17,2.17,0,0,1-.78-.33c.78-.45,3.22-.37,4.05-.58.91.12-.39.22.1.45l1.25-.33c.11.45,2.4.8.25,1l1.93.06a10.29,10.29,0,0,0,3.66.24c.91.12,2.31-.44,1.51-.11l3-.21,0,.11c3,.13,6.17-.6,9.57.28a17.76,17.76,0,0,1,3.73,0l.32.4c1.29-.11,3.87.46,4.44.06,1.37,1.07,6.26.34,8.53.57l.1-.51a39.47,39.47,0,0,0,5-.23l-.12-.45c1.68-.34,4.3.4,6.95.4a2.17,2.17,0,0,1-1.33,0c3.15,1.07,6.69-.65,9.55.13a3.67,3.67,0,0,1,1.73,0l-.18,0h.3l1,.25a4.51,4.51,0,0,0-.83-.25,19.91,19.91,0,0,0,2.21-.15l.34.49.19,0c.81.19.65-.21.23-.58a7.46,7.46,0,0,0,1.09-.28c.64.79,2.15-.23,3,.61.56-.4,4.13-.25,4.57-1.1,0,.11.27.17-.17.17a6.89,6.89,0,0,0,2.64,0l.39.62,2-.81c1.21.39,1.71.61.5,1.07,2.91-.7,2.36-.25,4.84-1l-.13.39c.89,0,2.3-.52,2.83-.19,2,.77,9.78.18,14.85.92-1-1.17,2.35.54,2.56-.36.29.27,1,.43.18.67,2.59-.26,3.88.45,5.67-.3.3.27-.55.4-.29.56.21-.06.83-.23,1.09-.07s-.38.23-.79.35c2.65,0,2.92-.89,3.11-1.68a3.38,3.38,0,0,0,3-.19c.47.26,1.24.54-.4.63.93,0,5.65.4,5.74-.24a3.47,3.47,0,0,0,1.54,0c2.07,0,2.25.1,4.29.05l-.56-.11c.8-.76,1.69-.17,3.33-.26l0,.08c3.76.55,1.62-.27,5.33.36l-.2-.48c.35-1,3.29.61,5.45.21l-.78-.27c1.18-.36,3.29,1.4,4.48,1.52.25.09-.41.15-.77.21,3.1.61.4-.62,2.71-.77.42.34-.55.86,1,.92.78.27,4.5-1.1,6.62-.46-.46-.26-.93-.52.14-.72,1.64-.1,4.45,1,5.93.13.21.07.28.14.29.2,1.26-.22,4.08-.37,4.84-.82C283.41,14,290,11.52,290,13l3.86-.1-.1.16a8.17,8.17,0,0,0,4.2-.67c.57.09.16.24.11.32a14.94,14.94,0,0,0,7-.59l.32.49c.82-.29,5.23.73,8.76.11,0,.06-.11.16-.39.23,4-.62,9.55,1.26,11-.57l2.62-.48c-3.4-.09.5-.79-.91-1.07,1.34-.13,3.47.49,1.83.61l-.26-.09c-.59.95,4.22.27,4.14.91,6.69-.14,13.21.29,19.47.19l-.73-.71h2.18c.58.15.78.55-.78.55a3.47,3.47,0,0,0,2.65-.56c3.06.24-1.17.88-.24.88l1.27-.08-.29-.08a6.23,6.23,0,0,1,3-.64c1.19.12.61.44,1.08.46,0,0,.16.07.72,0h2.75l-1.11-.56c1.21-.31,2.59,0,1.3-.65,1.89,1,10.28.15,11.43.43a20,20,0,0,1,5.47-.5c-.52-.11-.85-.75.95-.71-.62,1.35,3.32.5,4.8,1.43-1.32-.61,5.11-.29,3.05-1.14,1.51.07.1.5,1.25.78,3.57-.59,7.9.13,12.31-.17.07-.18-.68-.43.26-.72l2.36.81c.87-.11.77-1,2.39-.47-.23-.14-.57-.35,0-.43,8.69.62,17.67-1.23,26.52.07-1.2-.3-.41-.36.5-.4-.59-.06,0-.43-.12-.67l3.7.54c.65-.69,3.95-.18,4.31-.82l-1.16.15c1.52-.8-2.23-1.59-2-2.55-1.7.91-4.61-1.1-7.42.21-.64-.18.53-.33.18-.54a5.1,5.1,0,0,1-3.2.42l.18-.11c-4.53.25-6.49-.08-11.6-.19L418,7a6.64,6.64,0,0,1-1.85-.28c-1.24.76,3.08,0,1.95.78-1.48-.92-7.72.21-8.74-.86-1.68.05.51.54-1.17.58l-.46-.28-.41.39c-1.11,0-1.68-.39-1.72-.63a8,8,0,0,0,1-.13c-1.44-.3-4,.24-4.53.14l1.62.14c-4.59.41-10.21.19-14.64.89l.34.21c-3.38.5-2.72-.18-6.44.1l.13-.05a9.34,9.34,0,0,1-2.75.37c.93-.28-1.79-.46-.56-.78-3.67.53-1.81.39-4.22,1.28L375,8.51a5.5,5.5,0,0,1-2.75.68c1.52-.36-1.2-.54.5-1-3.92-.71-5.78,1-7.59-.2-1.78,1.06,3.39.5,2.39.74.85.32-1.47.8-2.69.72s-2.15-1.27-5.29-1.19c.31,0,.33-.08.64-.08-1.18-.24-2.29.4-3.74,0-.8.64-1.87,0-2.09.8l2.88-.24c-1.63.24-3.14,1.19-5.84.8A5.87,5.87,0,0,1,352.94,9c-.79-.22-1.51.18-2.33,0,.21-.8,3.49-.24,5.23-.88-.85-.32-3.3.64-2.43-.24-1.25,1.12-3.1-.07-5.21.8l.13-.48a6.4,6.4,0,0,1-1.64.32l1.11-.63c-1.72.55-3.33-.39-5-.09,3.45-.07.78.56,2.25.88-4.25.71-2.47-1.2-7.24-.9.64-.08,2.43.25,1.42.49a11.61,11.61,0,0,1-2.67-.49c-3.16.14.49.48-.85.79-1.09-.56-1.55.26-2.93.46l0-.48c-3.61-.25-.94,1-4.19.7L330,8.54l-1.69.19.35-.55a10.77,10.77,0,0,1-4.22.21c.43.33-.22.88-1.82.92-1.09-.27.61-.47-1.65-.37A1.91,1.91,0,0,1,323,8.68c.1-.16.5-.31.6-.47a14.39,14.39,0,0,0-3.77,0,3.58,3.58,0,0,1,.89.1l-3.27.7c-.52-.17-.11-.32.29-.47-.66.06-1.12.29-2.09.34.24-.4.18-.8,1.56-1l-3.12.47c-.21-.17-1.61-.45-1.2-.6-1.74-.22-4.24.8-6.54.52a2.17,2.17,0,0,1-.85.21c-2.16-.06-4.07-.52-6.63,0l-1.45-.69c-2,.18,2,.87-1.36,1.17-2.36.25-.89-.59-1.72-.78a9.66,9.66,0,0,1-5.38.53A18.66,18.66,0,0,1,290.89,8.65Zm-24.71.44c.48-.11,1.44-.42,1.79-.13C267.42,9.51,267,9.24,266.18,9.09Zm-37.56,1.12a2.4,2.4,0,0,1,1.53.11A4.85,4.85,0,0,1,228.62,10.21ZM123.89,12.1l.06,0C125,12.29,124.63,12.21,123.89,12.1Zm-2.21-.26c-.22.06-.21.13-.12.2a2.48,2.48,0,0,1,1.22-.07C122.63,11.84,122.35,11.75,121.68,11.84ZM360,12.13l-.43-.12C360.54,11.85,360.27,12,360,12.13Z"/><path class="cls-8" d="M232.88,9.57a.43.43,0,0,1,.2.26C233.27,9.75,233.28,9.66,232.88,9.57Z"/><path class="cls-8" d="M306.25,8.26h.08a.18.18,0,0,0,.07-.09Z"/><path class="cls-8" d="M156.13,8.46a2.6,2.6,0,0,1,.87.27C157,8.61,156.82,8.51,156.13,8.46Z"/><path class="cls-8" d="M109.9,12.35l1.43-.09a3.61,3.61,0,0,1-1.28-.19C110.08,12.18,110.35,12.35,109.9,12.35Z"/><path class="cls-8" d="M97.65,9c-.21.06-.44,0-.65.05l0,.23C97.94,9.32,98.56,9.15,97.65,9Z"/><path class="cls-8" d="M108.63,10.71c-.1-.41-1-.29-2-.24h.18C106.5,11,107.57,10.87,108.63,10.71Z"/><path class="cls-8" d="M106.4,10.47a7.06,7.06,0,0,1-.92,0C105.36,10.68,105.85,10.52,106.4,10.47Z"/><path class="cls-8" d="M118.86,12c-.47-.12-.31.51-.57.34C117.75,12.88,121.45,11.84,118.86,12Z"/><polygon class="cls-8" points="107.86 9.36 108.2 9.87 108.77 9.48 107.86 9.36"/><path class="cls-8" d="M115.71,9.93l-1.59-.18c0,.09-.18.13-.43.16C114.67,10,115.74,10.08,115.71,9.93Z"/><path class="cls-8" d="M113.69,9.91a5.45,5.45,0,0,0-1.28.05A12.22,12.22,0,0,0,113.69,9.91Z"/><polygon class="cls-8" points="110.04 9.26 110.5 9.38 111.63 9.45 110.04 9.26"/><path class="cls-8" d="M132.8,10.43l1.74-.1c.18-.17-.29-.29-.94-.23C133.18,10.21,132.54,10.26,132.8,10.43Z"/><path class="cls-8" d="M127.58,8.94a1.72,1.72,0,0,1,.76.4l.07-.62Z"/><path class="cls-8" d="M132.65,8.91c.17-.17,2.52-.44.32-.45C132.79,8.63,131.05,8.73,132.65,8.91Z"/><polygon class="cls-8" points="158.78 10.21 158.34 10.21 158.38 11.23 158.78 10.21"/><path class="cls-8" d="M181.86,8.13c-2.05-.27-.49.62-2.35.29-.48.24,1.52.27,1,.47C181.77,8.65,182.42,8.81,181.86,8.13Z"/><path class="cls-8" d="M180.53,8.89l-.64.15A3.53,3.53,0,0,0,180.53,8.89Z"/><polygon class="cls-8" points="440.79 10.41 442.12 10.58 441.25 10.26 440.79 10.41"/><path class="cls-8" d="M443.3,9.57l.33.64.78-.62A2.3,2.3,0,0,1,443.3,9.57Z"/><path class="cls-8" d="M262.51,7.78l-.1.16c.2.17.51.18,1.13.21Z"/><polygon class="cls-8" points="280.44 8.2 280.13 8.19 280.71 8.77 280.44 8.2"/><path class="cls-8" d="M295.48,7.36c-.61,0-1.33.12-2,.1C294.87,7.35,295.65,8.09,295.48,7.36Z"/><path class="cls-8" d="M446.88,176.69c0,.25.38.16.46.2C447.24,176.47,446.77,176.7,446.88,176.69Z"/><polygon class="cls-8" points="445.93 172.57 446.1 172.65 445.69 172.04 445.93 172.57"/><path class="cls-8" d="M445.94,168.72c-.71.36.12,1.4-.14,2.08l-.16.12.57.31A8.11,8.11,0,0,1,445.94,168.72Z"/><path class="cls-8" d="M447.49,166.67c-.28.13-.24-.44-.09.48a1,1,0,0,1,.07-.09A3.39,3.39,0,0,1,447.49,166.67Z"/><path class="cls-8" d="M447.47,167.06c0,.41.24-.26,0,0Z"/><path class="cls-8" d="M447.32,165.19l.25.53c.16-.11.2-.58.32-.41C447.75,164.77,447.59,164.88,447.32,165.19Z"/><path class="cls-8" d="M446.8,164.68l.1.28C447,164.91,447,164.84,446.8,164.68Z"/><path class="cls-8" d="M447.12,165.55l-.22-.59c-.11.08-.34.08.08.27C446.77,165.18,447,165.3,447.12,165.55Z"/><path class="cls-8" d="M447,165.88c-.15.3-.25.68-.5.15C446.61,167.05,447.11,166.9,447,165.88Z"/><path class="cls-8" d="M445.21,168.52l-.21.4.24.35C445.12,169.1,445.43,168.5,445.21,168.52Z"/><path class="cls-8" d="M447.7,161.86c-.15,0-.41.18-.6.22l.17.39C447.38,162.27,447.47,161.89,447.7,161.86Z"/><path class="cls-8" d="M447.1,162.08l-.26-.59C446.81,162,446.93,162.11,447.1,162.08Z"/><polygon class="cls-8" points="446.01 164.58 446.55 165.56 446 164.4 446.01 164.58"/><polygon class="cls-8" points="447.72 159.61 448.07 159.94 447.54 159.34 447.72 159.61"/><path class="cls-8" d="M447.67,158.11c.29.25.49-.34.67-.07a2.35,2.35,0,0,0-.53-1.07A1.34,1.34,0,0,1,447.67,158.11Z"/><path class="cls-8" d="M447.49,156.44a3.11,3.11,0,0,0,.32.53A1.5,1.5,0,0,0,447.49,156.44Z"/><path class="cls-8" d="M446.92,160.48a.69.69,0,0,0,.43-.46l-.43.23Z"/><path class="cls-8" d="M446.91,160.26h0c0-.25,0-.43,0-.5Z"/><path class="cls-8" d="M446.91,160.54v-.06C446.87,160.51,446.86,160.52,446.91,160.54Z"/><path class="cls-8" d="M446.4,163c-.24-.35-.49-1.07-.86-.38C445.83,162.91,446,162.51,446.4,163Z"/><path class="cls-8" d="M446.38,160.83l-.1.63c.11,0,.28-.13.4,0Z"/><polygon class="cls-8" points="446.25 160.52 446.38 160.83 446.42 160.6 446.25 160.52"/><path class="cls-8" d="M447.08,157.52a1.75,1.75,0,0,1-.22-.91,4.51,4.51,0,0,0-.14,1.08C446.86,157.74,447.1,157.9,447.08,157.52Z"/><path class="cls-8" d="M447,158.85l0-.06S446.89,158.85,447,158.85Z"/><polygon class="cls-8" points="446.87 153.32 446.79 153.37 446.87 153.38 446.87 153.32"/><path class="cls-8" d="M446.64,157.75a.55.55,0,0,0,.16.59,3.3,3.3,0,0,1-.08-.65C446.66,157.67,446.62,157.67,446.64,157.75Z"/><path class="cls-8" d="M447.29,155.52a2.93,2.93,0,0,0-.23.47C447.19,155.85,447.4,155.57,447.29,155.52Z"/><path class="cls-8" d="M447.06,158.7s0,0,0,0S447.12,158.66,447.06,158.7Z"/><path class="cls-8" d="M447.06,158.7a1.58,1.58,0,0,0-.26-.36,2,2,0,0,0,.14.45A.38.38,0,0,1,447.06,158.7Z"/><path class="cls-8" d="M444.13,152.31a.87.87,0,0,1,.33,1.37c.3.6,1.6.21,2.33-.31-.17,0-.33,0-.56-.64-.22.22-.51,1.37-.87.85-.2-.82.15-.67.36-1.07-.5.34-.72-1-1.44-.87l.25.72C444.42,152.37,444.24,152.11,444.13,152.31Z"/><path class="cls-8" d="M446.75,154.55l.05.26a2.24,2.24,0,0,1,.54-.88c-.19-.43-.34-.52-.47-.55l-.06,1.26Z"/><path class="cls-8" d="M446.79,156c-.43-.2-.61-.81-1.07-.44,0,.75.35.53.54,1-.1-1.2.24.35.48-.52a2.82,2.82,0,0,1,.12.65,3.45,3.45,0,0,1,.2-.62l0,0h0s-.08.07,0,0,0,0,0,0a.44.44,0,0,1-.16-.06c.09-.35.11,0,.16.06H447l-.23-1.21A4,4,0,0,0,446.79,156Z"/><path class="cls-8" d="M444.61,162a.12.12,0,0,1,.1,0C444.66,161.9,444.63,161.87,444.61,162Z"/><path class="cls-8" d="M444.88,161.52c.06.09.23.16.18.45s-.2,0-.35,0c.12.17.31.6.52.06l-.06-.08c.15-.49.69-1.11.75-1A3,3,0,0,0,444.88,161.52Z"/><path class="cls-8" d="M445.72,158.7l-.2-1-.38.51.23,0C445.28,158.75,445.55,158.63,445.72,158.7Z"/><polygon class="cls-8" points="447.09 153.2 447.54 153.34 446.9 152.75 447.09 153.2"/><polygon class="cls-8" points="447.04 151.89 447.43 151.94 447.19 151.6 447.04 151.89"/><path class="cls-8" d="M442.43,78l-.11-.3A1,1,0,0,0,442.43,78Z"/><path class="cls-8" d="M442.4,80.12l.19,0C442.48,80.07,442.41,80,442.4,80.12Z"/><path class="cls-8" d="M447.14,119.73c.37-.43.95-.91.5-.86l-.43.13A1,1,0,0,1,447.14,119.73Z"/><path class="cls-8" d="M444.65,97.69l-.13.13.41.29C444.85,98,444.75,97.84,444.65,97.69Z"/><path class="cls-8" d="M442.86,97.38l.28-.57A2,2,0,0,0,442.86,97.38Z"/><path class="cls-8" d="M442,66.27l-.44-.34C441.53,66.47,441.76,66.23,442,66.27Z"/><path class="cls-8" d="M446.94,138.48a2.69,2.69,0,0,0,.26-.93C447,138,446.57,138.36,446.94,138.48Z"/><path class="cls-8" d="M447,78.83c-.08-.19-.17-.26-.26-.26C446.84,78.76,446.92,78.86,447,78.83Z"/><path class="cls-8" d="M447.2,136.48c0,.06-.06.13-.1.2a2.42,2.42,0,0,1,.1.87A.87.87,0,0,0,447.2,136.48Z"/><path class="cls-8" d="M442.1,23.84l0-.1C442.09,23.73,442.09,23.77,442.1,23.84Z"/><path class="cls-8" d="M446.3,11.4a3.52,3.52,0,0,1,0,.51A1,1,0,0,0,446.3,11.4Z"/><path class="cls-8" d="M447.25,146.63c0,.27,0,0,0,0Z"/><path class="cls-8" d="M445.53,148a.26.26,0,0,0-.22-.11A.35.35,0,0,1,445.53,148Z"/><path class="cls-8" d="M444.52,133.7v0C444.43,133.76,444.45,133.74,444.52,133.7Z"/><path class="cls-8" d="M447.05,147a1.59,1.59,0,0,0,.13-.35A1.22,1.22,0,0,0,447.05,147Z"/><path class="cls-8" d="M447.25,147l0,.24C447.28,147.27,447.33,147.23,447.25,147Z"/><path class="cls-8" d="M447.23,146.24a2.14,2.14,0,0,1-.05.45c0-.06.05-.08.07-.06S447.24,146.43,447.23,146.24Z"/><path class="cls-8" d="M443.44,46.56s0,0,0-.06C443.3,46.23,443.33,46.35,443.44,46.56Z"/><path class="cls-8" d="M442.67,112.48s0,0,0,0l0,0Z"/><path class="cls-8" d="M442.35,111.48c.54.43.47.67.36,1l1.25-.32Z"/><path class="cls-8" d="M442.31,72.84l-.39.7c-.64-.84-.42-1.45-1-.8,1.36.1.14,2.73,1.49,2.82l-.28.47c0-.14-.07-.16-.06-.29-.65.9,1,.67.79,1.83-.1.4-.3.68-.46.41l.33.89c0,.27-.26.2-.23-.06l.1,1.37h0a5.34,5.34,0,0,1,.68.86c-.19.35-.14-.18-.31-.09l.33.76c-.35.31-.69-.32-.64-.84-1.36.7.34.63-.46,2.15L442,82.3c-.77.46-.49,1-1,1.83.25-.2,1.21-1.62,1.55-.8a.94.94,0,0,0,.12,1c-.49,0-.37.44-.34,1l-.64,0c.18.59.51.55.79.89-.06.66-.56.79-1,.94-.1,1,.8-.72.92.52a3.75,3.75,0,0,0,.39,2.53c-.22.61-.39-.11-.57.11l.5.54c0,.13-.16.09-.24.07.19.45.64,0,.81.75.7.2-1,1.47-.24,2.36-.18.22-.39-.11-.64,0a6.82,6.82,0,0,0,1.08,2l-.42.85c.48-.62,1.05.18,1.51.88a5,5,0,0,0,.53-.54l.34,1.12c-.1.14-.32,0-.59-.16a2.07,2.07,0,0,0,.15.2c-.23.4-.6.19-1-.09l.4-.4a1.83,1.83,0,0,0-1.19-.48.86.86,0,0,1,.17.36c-.11-.07-.2-.12-.27-.08s.08.15.24.33l-.71.25.28.07-.45,1.46c.71,1,1.76,2,2.05,3.62-.52-.42-.85-.1-1.47-.12.66-.45-.27-1.29-.14-2.15-.07.45-.36.35-.47.24l.59,1.53c-.5,0-.38.33-.59.73,1-.3.67,1.14,1,1.77-.34,0-.68-.12-.6-.88-.75.84,1.18,1.09.53,1.91,0-.18.05-.28-.12-.36.29.44.05,1.5-.24,1.25v-.19c-.12,1.24,0,3.76.83,4a6.6,6.6,0,0,1-1.2-.25l2.85,2.22c-.73-.2-2.47.54-2.88-.49a1.56,1.56,0,0,0,0,1.28c.1-.2,1.06-.5,1.12-.22-.81.75-.43.52-1.13,1.44.16-.3,1.3,0,1.26.51-.17-.07-1.13,0-1.25-.14l1.12,1.19c-.2-.29-.95-.06-1.27.21.22-.12,0,1,.08,1.33l.27-.5c-.18,1.34,1.57,1.33,1.51,2.65-.24-.16-1.43-.4-1.58.27.58.31,2.77,1.38,3.2,2.55l-.33.23.37.9a21.64,21.64,0,0,1-3.38-3c-.26.5-.39.14-.36.89-.31.26-.47-.41-.49-.63l-.2,1.74c.67-.08.66,1.33,1.22,1.27l-.68-1.89c.67-.08,1.9,1.1,1.77,2.33-.26.31-1.19-.24-1.42-.22.24.17.44,1.18.28,1.29l-.36-.53c-.26.69.89,1.13.24,2,0,.29-.87.85-.47.9a6.22,6.22,0,0,1,3.71-.23,9.36,9.36,0,0,1-1.12,1.82c-.6.46-1.43-.72-1.95-.32.19,0,.41.28.49.39-.16.3-.57-.13-.49.52.68.11-.07,1.32.57.31.19.64-.14.68-.12,1.42.45-.23,1.5.68,1.69,1.32a.76.76,0,0,0-.5.17c-.07,1.3-.38,2-.39,3.21-.17.12-.37.7-.66.45a1.14,1.14,0,0,1,.36.71c-.59.72-.09-.83-.8-.29.4.05.54,1,.79,1.51.61-.16.12-1.23-.12-1.77.84,0,1.72.94,2.1,2.21.21,1-.54.44-.42.61-.16,1.9,1.46,1.62.85,3.19-.54.63-1.07,0-1.46.16-.2-.82.35-1.26.33-1.81l-.26.68a1.29,1.29,0,0,1-.15-1.11c-.49.52-.11,3.2-.56,4.66.17.26.36.71.58.5l-.08-.46c.44-.42.6.87.8.29a2.92,2.92,0,0,1,.53,2.19l-.61.16c.18,0,.37-.57.18-.81.27.36-.83,1.33,0,1.73l.42-.61c.31.63,1,1.4.76,2.17.61-.35-.07-.17.64-.72-.88.47.05-2-.88-1.22.82-.56.35-1,1.06-1.71-.21,0-.39.26-.29-.39a1.24,1.24,0,0,1-.18-.14l0-.05,0,0s0,0,0,0a.77.77,0,0,1-.31.33c-.47-.32-.45-1.36-.69-1.71.1-.38.24.17.45,0l-.35-.53c.44,0,.75-1,1-.11l0-.82a2,2,0,0,0,.17-1.55c.1-.38-.49-1-.14-.64l-.28-1.28H447c.06-1.27-.74-2.61.08-4a3.11,3.11,0,0,1-.11-1.58l.38-.14c-.13-.55.4-1.64,0-1.88,1.05-.58.24-2.65.43-3.61l-.51,0a7.44,7.44,0,0,0-.31-2.12l-.44,0c-.37-.71.32-1.82.28-2.94.17.08.13.36,0,.56,1-1.33-.72-2.83,0-4a.7.7,0,0,1,0-.73.09.09,0,0,0,0,.07v-.12a4.19,4.19,0,0,0,.24-.42,1.46,1.46,0,0,0-.24.35,3.85,3.85,0,0,0-.17-.93l.48-.15v-.08c.18-.34-.23-.27-.59-.09a1.72,1.72,0,0,0-.29-.46c.78-.28-.26-.91.57-1.29-.4-.23-.29-1.74-1.14-1.93.11,0,.16-.12.17.07a1.29,1.29,0,0,0,0-1.12l.61-.16-.82-.85c.38-.51.59-.72,1.06-.21-.72-1.24-.27-1-1-2l.4,0c0-.37-.54-1-.22-1.2.76-.83.13-4.14.84-6.28-1.17.41.52-1-.38-1.09.27-.12.43-.42.67-.07-.27-1.1.44-1.65-.32-2.41.28-.12.41.24.57.13-.06-.09-.24-.35-.07-.47s.23.17.35.34c0-1.12-.89-1.24-1.69-1.32.38-.57.33-.85-.19-1.26.26-.2.53-.53.62.17,0-.39.39-2.39-.24-2.43.16-.13.05-.55,0-.65a11.12,11.12,0,0,0,0-1.82l-.1.24c-.77-.35-.17-.72-.26-1.42l.08,0c.56-1.59-.27-.69.37-2.26l-.48.09c-1-.15.61-1.39.22-2.31l-.27.33c-.36-.5,1.4-1.39,1.53-1.89.09-.11.15.17.21.33.61-1.31-.63-.18-.77-1.15.34-.18.86.23.93-.43.27-.32-1.1-1.91-.45-2.8-.26.19-.52.39-.72-.06-.09-.7,1-1.88.17-2.51a.31.31,0,0,1,.21-.13c-.22-.53-.35-1.73-.8-2,1.66-.49-.8-3.3.73-3.29l-.08-1.64.15,0a1.86,1.86,0,0,0-.63-1.79c.1-.24.25-.06.33,0a3,3,0,0,0-.52-3l.49-.13c-.29-.35.78-2.21.2-3.71a.3.3,0,0,1,.22.16c-.58-1.68,1.37-4-.44-4.65L446,57.41c-.14,1.44-.79-.21-1.08.38-.11-.57.54-1.47.63-.77l-.09.11c.94.25.33-1.79,1-1.75-.05-2.84.46-5.6.48-8.25l-.72.31,0-.93c.17-.24.57-.33.55.33.41-.35-.36-1.1-.52-1.12.29-1.29.86.5.87.1l-.05-.53-.09.12c-.3-.44-.62-.47-.58-1.27.14-.5.45-.26.47-.46.06,0,.08-.06,0-.3l.06-1.17-.58.47c-.28-.51,0-1.09-.62-.55,1-.8.33-4.35.64-4.84A3.84,3.84,0,0,1,446,35c-.12.22-.77.36-.69-.41,1.34.27.57-1.4,1.52-2-.63.55-.17-2.17-1.07-1.3.1-.64.5,0,.81-.53-.53-1.51.31-3.34.11-5.22-.18,0-.44.29-.71-.11l.87-1c-.09-.37-1-.33-.42-1-.15.1-.37.25-.43,0,.82-3.69-.79-7.49.75-11.25-.33.51-.37.18-.39-.21-.07.25-.43,0-.67.06l.64-1.58c-.67-.27-.07-1.67-.71-1.82l.12.49c-.75-.64-1.64.95-2.6.87.86.72-1.23,2,0,3.15-.19.27-.31-.23-.53-.08.41.3.5.67.33,1.35l-.1-.07c.13,1.92-.26,2.75-.5,4.91l.47-.16a1.7,1.7,0,0,1-.32.78c.72.52,0-1.3.82-.83-1,.63,0,3.27-1.07,3.7,0,.72.55-.21.55.5l-.29.19.38.18a.81.81,0,0,1-.67.73,1.75,1.75,0,0,0-.1-.44c-.34.61.14,1.7,0,1.91l.17-.68c.3,1.94-.06,4.32.56,6.2l.22-.14c.42,1.43-.24,1.15,0,2.73L443,33.8a1.83,1.83,0,0,1,.32,1.17c-.26-.4-.5.75-.79.23.45,1.56.35.77,1.19,1.79l-.37.24A1.45,1.45,0,0,1,444,38.4c-.32-.65-.56.5-1-.22-.79,1.66.84,2.45-.34,3.22,1,.75.56-1.44.78-1,.33-.36.77.62.67,1.14s-1.31.91-1.28,2.24c0-.14-.08-.14-.07-.28-.26.5.36,1-.06,1.59.62.34,0,.79.76.89l-.19-1.22c.21.69,1.14,1.33.69,2.47a1.86,1.86,0,0,1-.49-.66c-.23.34.16.65-.08,1-.79-.09-.18-1.48-.78-2.22-.34.36.58,1.4-.28,1,1.09.53-.13,1.31.7,2.21l-.47-.06a1.61,1.61,0,0,1,.29.7l-.62-.47c.53.73-.45,1.41-.16,2.1,0-1.46.57-.33.91-1,.64,1.81-1.24,1-1,3.07-.07-.28.28-1,.5-.61a2.58,2.58,0,0,1-.53,1.13c.11,1.34.49-.2.79.37-.58.45.23.65.42,1.24h-.48c-.31,1.52,1,.4.63,1.77l-.67-.58.18.72-.55-.15a2,2,0,0,1,.15,1.79c.34-.18.88.1.89.77-.28.46-.46-.26-.38.7-.31-.21-.69-.45-.24-.87-.16,0-.31-.21-.46-.25-.33.49-.07,1.24-.07,1.59a.81.81,0,0,1,.11-.37l.67,1.38c-.18.22-.32,0-.47-.12.06.28.28.47.32.89-.39-.11-.8-.08-1-.67l.43,1.32c-.17.09-.46.68-.61.51-.23.74.76,1.8.46,2.77a.57.57,0,0,1,.2.36c-.08.92-.56,1.73,0,2.81l-.7.61c.16.85.89-.83,1.15.59.23,1-.6.37-.79.72.35.5,1.07,1.36.5,2.28C442.26,73.37,442.36,73.13,442.31,72.84Zm.3,10.47c-.1-.2-.42-.61-.13-.75C443,82.79,442.77,83,442.61,83.31Zm1.11,15.92c-.16-.15-.08-.39.1-.65A1,1,0,0,1,443.72,99.23Zm3.15,44.35,0,0C447,143.11,447,143.27,446.87,143.58Zm-.22.94a.15.15,0,0,0,.21,0c-.13-.07-.13-.28-.1-.52C446.64,144.12,446.55,144.24,446.65,144.52Zm0-100.94-.13.18C446.41,43.35,446.53,43.47,446.68,43.58Z"/><path class="cls-8" d="M443.06,97.42a.56.56,0,0,1,.27-.08C443.25,97.26,443.15,97.25,443.06,97.42Z"/><path class="cls-8" d="M442.05,66.34v0l-.09,0Z"/><path class="cls-8" d="M442.63,129.94a.79.79,0,0,1,.25-.37C442.77,129.56,442.67,129.65,442.63,129.94Z"/><path class="cls-8" d="M447.45,149.5l-.12-.6a.79.79,0,0,1-.16.54C447.28,149.43,447.45,149.31,447.45,149.5Z"/><path class="cls-8" d="M444.45,154.71c.06.09,0,.19.06.28l.23,0C444.72,154.59,444.54,154.33,444.45,154.71Z"/><path class="cls-8" d="M445.85,150.05c-.41,0-.27.43-.2.85v-.08C446.22,151,446,150.5,445.85,150.05Z"/><path class="cls-8" d="M445.67,151a1.7,1.7,0,0,1,0,.39C445.9,151.44,445.72,151.23,445.67,151Z"/><path class="cls-8" d="M446.92,145.71c-.11.2.52.13.35.24C447.79,146.18,446.65,144.62,446.92,145.71Z"/><polygon class="cls-8" points="444.51 150.39 445.01 150.24 444.61 150 444.51 150.39"/><path class="cls-8" d="M444.89,147.06l-.14.67c.08,0,.13.08.17.18C444.94,147.5,445,147,444.89,147.06Z"/><path class="cls-8" d="M444.92,147.91a1,1,0,0,0,.08.55A2,2,0,0,0,444.92,147.91Z"/><polygon class="cls-8" points="444.36 149.47 444.47 149.27 444.51 148.79 444.36 149.47"/><path class="cls-8" d="M445,139.82l-.14-.74c-.17-.07-.28.13-.21.4S444.85,139.93,445,139.82Z"/><path class="cls-8" d="M443.64,142c.1-.2.21-.22.38-.33l-.62,0Z"/><path class="cls-8" d="M443.5,139.89c-.17-.07-.49-1.07-.45-.14C443.22,139.83,443.36,140.57,443.5,139.89Z"/><polygon class="cls-8" points="444.34 128.81 444.35 129 445.37 128.98 444.34 128.81"/><path class="cls-8" d="M442,119c-.24.87.63.21.32,1,.24.21.26-.64.46-.43C442.48,119.07,442.63,118.8,442,119Z"/><path class="cls-8" d="M442.73,119.6a1.28,1.28,0,0,0,.16.27A1.23,1.23,0,0,0,442.73,119.6Z"/><polygon class="cls-8" points="446.82 9.34 447.02 8.78 446.68 9.14 446.82 9.34"/><path class="cls-8" d="M446,8.28l.65-.15-.59-.32C446.13,7.93,446.19,8.18,446,8.28Z"/><path class="cls-8" d="M441.29,84.86l.16,0c.17-.09.18-.22.21-.48Z"/><polygon class="cls-8" points="441.79 77.27 441.78 77.4 442.37 77.16 441.79 77.27"/><path class="cls-8" d="M441.05,70.89c0,.26.11.57.08.83C441,71.15,441.78,70.82,441.05,70.89Z"/></svg>