<?xml version="1.0" encoding="utf-8"?>
<!-- Generator: Adobe Illustrator 24.1.2, SVG Export Plug-In . SVG Version: 6.00 Build 0)  -->
<svg version="1.1" id="Layer_1" xmlns="http://www.w3.org/2000/svg" xmlns:xlink="http://www.w3.org/1999/xlink" x="0px" y="0px"
	 viewBox="0 0 841.9 595.3" style="enable-background:new 0 0 841.9 595.3;" xml:space="preserve">
<style type="text/css">
	.st0{opacity:0.69;}
	.st1{opacity:0.3;fill:#FFB76C;}
	.st2{opacity:0.3;fill:#FFAD56;}
	.st3{opacity:0.3;fill:#FFA238;}
	.st4{opacity:0.3;fill:#FFB874;}
	.st5{opacity:0.3;fill:#FFCB9B;}
</style>
<g class="st0">
	
		<image style="overflow:visible;opacity:0.75;" width="875" height="417" xlink:href="5F996AAC.png"  transform="matrix(1 0 0 1 -7 130.2756)">
	</image>
	<g>
		<g>
			<g>
				<path class="st1" d="M252.7,425.3c1.7,0.4,3.4,0.8,5,1.2c103.2,25.9,204.5,65.8,312.3,87c91.7,18,183.9,14.4,272.9-5L841,256.3
					l-239,16L1,139.2v283.2c27.5-8.7,56-13.6,84.8-15.2C142.2,403.9,198.7,412.1,252.7,425.3z"/>
			</g>
			<g>
				<path class="st2" d="M5,144.3L4,348.7c29.3-9.1,59.7-13.4,90.2-13.6c54.1-0.4,106.9,11.2,157.5,26.8c1.6,0.5,3.1,1,4.7,1.5
					c96.6,30.5,192.4,72,295.9,94.6c98.2,21.5,198,16.9,293.6-6.2L844,256.3l-226,47c-27,4-52,2-74-4l-261-44c-26-1-78-22-105-37
					L5,144.3z"/>
			</g>
			<g>
				<path class="st3" d="M96.7,322.7c51.7,1.9,101,10.9,148,22.4c1.5,0.3,2.9,0.7,4.4,1.1c90,22.2,180.3,49.2,279.6,64.4
					c104.6,16.1,212.3,12.7,314.3-4.6V242.3l-243.9,44l-598-44v87.8C32,324,64.5,321.6,96.7,322.7z"/>
			</g>
			<g>
				<path class="st4" d="M843.9,289.3v-112c-108.3-17.6-224.2-20.8-335-4.5c-95,14-179.9,38.1-263.2,59.9c-1.4,0.3-2.7,0.7-4.1,1
					c-43.6,11.2-89.3,20.8-138.5,24c-33.9,2.2-68.4,0.5-101.1-5.2v36.6H843.9L843.9,289.3z"/>
			</g>
			<g>
				<path class="st5" d="M109,253.7c93.6,44.6,190.4,89.9,301.1,117.3c133.9,33.1,276.8,29.9,409.4-2.6c8.2-2,16.3-4.1,24.4-6.3
					V211.3l-151.9,39l-100,7l-587-45c32.9,9.5,66.8,23.9,99.5,39.3C106,252.2,107.5,253,109,253.7z"/>
			</g>
		</g>
	</g>
</g>
</svg>
