<svg id="Layer_1" data-name="Layer 1" xmlns="http://www.w3.org/2000/svg" viewBox="0 0 182.9 78.33"><defs><style>.cls-1,.cls-3,.cls-5{fill:none;}.cls-1,.cls-2,.cls-3,.cls-4{stroke:#f7941d;}.cls-1,.cls-2,.cls-3,.cls-4,.cls-5{stroke-miterlimit:10;}.cls-1,.cls-4{stroke-width:2px;}.cls-2,.cls-7{fill:#262262;}.cls-4{fill:#fff;}.cls-5{stroke:#262262;}.cls-6{fill:#f7941d;}.cls-7{font-size:59.02px;font-family:ScriptMTBold, Script MT Bold;}</style></defs><rect class="cls-1" x="119.87" y="12.48" width="42.54" height="32.29" rx="3.92" transform="translate(-0.96 5.24) rotate(-2.12)"/><rect class="cls-2" x="119.28" y="17.04" width="42.86" height="1.79" transform="translate(-0.57 5.22) rotate(-2.12)"/><rect class="cls-3" x="126.89" y="22.2" width="4.17" height="3.06" transform="translate(-0.79 4.79) rotate(-2.12)"/><rect class="cls-3" x="150.99" y="27.83" width="4.17" height="3.06" transform="translate(-0.98 5.69) rotate(-2.12)"/><rect class="cls-3" x="139.17" y="21.81" width="4.17" height="3.06" transform="translate(-0.77 5.24) rotate(-2.12)"/><rect class="cls-3" x="139.27" y="28.25" width="4.17" height="3.06" transform="translate(-1.01 5.25) rotate(-2.12)"/><rect class="cls-3" x="139.59" y="34.93" width="4.17" height="3.06" transform="translate(-1.25 5.27) rotate(-2.12)"/><rect class="cls-3" x="127.18" y="28.81" width="4.17" height="3.06" transform="translate(-1.03 4.81) rotate(-2.12)"/><rect class="cls-3" x="127.63" y="35.21" width="4.17" height="3.06" transform="translate(-1.27 4.83) rotate(-2.12)"/><rect class="cls-3" x="150.67" y="21.35" width="4.17" height="3.06" transform="translate(-0.74 5.67) rotate(-2.12)"/><circle class="cls-4" cx="166.52" cy="17.08" r="10.88"/><line class="cls-5" x1="166.14" y1="17.13" x2="175.16" y2="16.81"/><line class="cls-5" x1="165.94" y1="8.15" x2="166.24" y2="17.04"/><path class="cls-6" d="M130.28,14.36a3.4,3.4,0,0,1-.31-.52l.13.29a2.42,2.42,0,0,1-.19-.7l0,.33a2.51,2.51,0,0,1,0-.67l0,.33a3.35,3.35,0,0,1,.17-.62l-.12.29a3,3,0,0,1,.35-.6l-.2.26a2.74,2.74,0,0,1,.45-.45l-.25.19a2.52,2.52,0,0,1,.44-.28,1.26,1.26,0,0,0,.45-1.71,1.3,1.3,0,0,0-1.71-.45,3.8,3.8,0,0,0-1.36,5.57,1.36,1.36,0,0,0,.75.58,1.27,1.27,0,0,0,1.54-.87,1.22,1.22,0,0,0-.13-1Z"/><path class="cls-6" d="M151.74,13.07l-.25-.27.19.25a2.5,2.5,0,0,1-.29-.5l.13.3a2.23,2.23,0,0,1-.16-.56l0,.33a2.71,2.71,0,0,1,0-.57l0,.33a2.39,2.39,0,0,1,.15-.54l-.12.3a2.15,2.15,0,0,1,.28-.49l-.19.25a2.16,2.16,0,0,1,.4-.4l-.26.2.17-.12a1.33,1.33,0,0,0,.58-.74,1.32,1.32,0,0,0-.13-1,1.28,1.28,0,0,0-1.71-.45,3.76,3.76,0,0,0-1.14,1.14,3.49,3.49,0,0,0-.49,1.54A3.34,3.34,0,0,0,150,14.83a1.25,1.25,0,1,0,1.77-1.76Z"/><text class="cls-7" transform="translate(3.98 63.65) scale(0.8 1)">MyEvent</text></svg>